<?xml version="1.0" encoding="UTF-8"?>
<svg xmlns="http://www.w3.org/2000/svg" xmlns:xlink="http://www.w3.org/1999/xlink" width="4000" height="1100" viewBox="0 0 4000 1100">

<rect x="-400" y="-110" width="4800" height="1320" fill="url(#linear-pattern-0)"/>
<path fill-rule="nonzero" fill="rgb(99.609375%, 94.921875%, 0%)" fill-opacity="1" d="M 891.832031 187.949219 L 20.472656 1077.449219 L 818.835938 913.320312 Z M 11.457031 1082.371094 L 895.671875 179.742188 L 895.242188 183.996094 L 821.601562 915.816406 L 820.519531 916.039062 L 11.457031 1082.371094 "/>
<path fill-rule="nonzero" fill="rgb(49.804688%, 4.704285%, 94.921875%)" fill-opacity="1" d="M 561.539062 203.203125 L 221.425781 1214.480469 L 498.050781 1146.449219 Z M 216.84375 1218.691406 L 217.710938 1216.109375 L 566.089844 180.261719 L 500.898438 1148.839844 L 499.832031 1149.101562 L 216.84375 1218.691406 "/>
<path fill-rule="nonzero" fill="rgb(25.097656%, 68.554688%, 28.637695%)" fill-opacity="1" d="M -225.25 313.664062 L -11.21875 693.910156 L 558.015625 186.152344 Z M -12.003906 698.632812 L -229.972656 311.390625 L -227.851562 311.046875 L 567.699219 181.539062 L -12.003906 698.632812 "/>
<path fill-rule="nonzero" fill="rgb(25.097656%, 68.554688%, 28.637695%)" fill-opacity="1" d="M 793.921875 1161.238281 L 1084.519531 1161.238281 L 612.300781 35.191406 Z M 1089.03125 1164.238281 L 791.367188 1164.238281 L 791.164062 1162.980469 L 605.328125 10.800781 L 1089.03125 1164.238281 "/>
<path fill-rule="nonzero" fill="rgb(82.421875%, 13.719177%, 16.479492%)" fill-opacity="1" d="M -271.171875 439.238281 L 622.5625 718.527344 L 16.101562 25.429688 Z M 631.832031 724.570312 L 626.75 722.980469 L -275.964844 440.882812 L 15.828125 20.558594 L 17.09375 22.011719 L 631.832031 724.570312 "/>
<path fill-rule="nonzero" fill="rgb(0.392151%, 68.164062%, 94.139099%)" fill-opacity="1" d="M 611.492188 1106.582031 L 1244.871094 1229.71875 L 1035.640625 559.292969 Z M 1249.230469 1233.628906 L 606.136719 1108.601562 L 607.628906 1106.667969 L 1036.789062 552.910156 L 1249.230469 1233.628906 "/>
<path fill-rule="nonzero" fill="rgb(0.392151%, 68.164062%, 94.139099%)" fill-opacity="1" d="M -312.765625 226.234375 L -20.660156 828.699219 L 451.730469 43.671875 Z M -20.945312 834.992188 L -22.152344 832.5 L -317.09375 224.183594 L 457.984375 39.089844 L -20.945312 834.992188 "/>
<path fill-rule="nonzero" fill="rgb(92.576599%, 0%, 54.492188%)" fill-opacity="1" d="M 130.832031 1207.300781 L 515.089844 1230.070312 C 506.761719 1200.339844 332.25 853.40625 237.191406 666.359375 Z M 518.398438 1233.269531 L 516.8125 1233.171875 L 127.226562 1210.089844 L 127.554688 1208.410156 L 235.925781 657.246094 L 237.894531 661.125 C 249.351562 683.65625 518.398438 1213.148438 518.398438 1231.679688 L 518.398438 1233.269531 "/>
<path fill-rule="nonzero" fill="rgb(1.960754%, 42.358398%, 94.921875%)" fill-opacity="1" d="M 615.132812 14.46875 C 615.132812 19.179688 611.320312 23 606.613281 23 C 601.90625 23 598.089844 19.179688 598.089844 14.46875 C 598.089844 9.769531 601.90625 5.949219 606.613281 5.949219 C 611.320312 5.949219 615.132812 9.769531 615.132812 14.46875 "/>
<path fill-rule="nonzero" fill="rgb(0.392151%, 68.164062%, 94.139099%)" fill-opacity="1" d="M 287.113281 168.558594 C 287.113281 173.265625 283.296875 177.082031 278.589844 177.082031 C 273.886719 177.082031 270.070312 173.265625 270.070312 168.558594 C 270.070312 163.851562 273.886719 160.039062 278.589844 160.039062 C 283.296875 160.039062 287.113281 163.851562 287.113281 168.558594 "/>
<path fill-rule="nonzero" fill="rgb(49.804688%, 4.704285%, 94.921875%)" fill-opacity="1" d="M 179.050781 23 C 179.050781 27.699219 175.234375 31.519531 170.527344 31.519531 C 165.820312 31.519531 162.007812 27.699219 162.007812 23 C 162.007812 18.289062 165.820312 14.46875 170.527344 14.46875 C 175.234375 14.46875 179.050781 18.289062 179.050781 23 "/>
<path fill-rule="nonzero" fill="rgb(82.421875%, 13.719177%, 16.479492%)" fill-opacity="1" d="M 322.964844 525.558594 C 322.964844 530.265625 319.148438 534.082031 314.441406 534.082031 C 309.734375 534.082031 305.921875 530.265625 305.921875 525.558594 C 305.921875 520.851562 309.734375 517.039062 314.441406 517.039062 C 319.148438 517.039062 322.964844 520.851562 322.964844 525.558594 "/>
<path fill-rule="nonzero" fill="rgb(1.960754%, 42.358398%, 94.921875%)" fill-opacity="1" d="M 452.367188 601.898438 C 452.367188 605.230469 449.667969 607.933594 446.335938 607.933594 C 443.003906 607.933594 440.304688 605.230469 440.304688 601.898438 C 440.304688 598.566406 443.003906 595.867188 446.335938 595.867188 C 449.667969 595.867188 452.367188 598.566406 452.367188 601.898438 "/>
<path fill-rule="nonzero" fill="rgb(1.960754%, 42.358398%, 94.921875%)" fill-opacity="1" d="M 390.515625 283.421875 C 390.515625 286.753906 387.816406 289.453125 384.484375 289.453125 C 381.152344 289.453125 378.453125 286.753906 378.453125 283.421875 C 378.453125 280.089844 381.152344 277.390625 384.484375 277.390625 C 387.816406 277.390625 390.515625 280.089844 390.515625 283.421875 "/>
<path fill-rule="nonzero" fill="rgb(1.960754%, 42.358398%, 94.921875%)" fill-opacity="1" d="M 933.964844 525.558594 C 933.964844 528.890625 931.265625 531.589844 927.933594 531.589844 C 924.601562 531.589844 921.902344 528.890625 921.902344 525.558594 C 921.902344 522.226562 924.601562 519.527344 927.933594 519.527344 C 931.265625 519.527344 933.964844 522.226562 933.964844 525.558594 "/>
<path fill-rule="nonzero" fill="rgb(25.097656%, 68.554688%, 28.637695%)" fill-opacity="1" d="M 624.707031 825.8125 C 624.707031 829.144531 622.007812 831.847656 618.675781 831.847656 C 615.34375 831.847656 612.644531 829.144531 612.644531 825.8125 C 612.644531 822.484375 615.34375 819.78125 618.675781 819.78125 C 622.007812 819.78125 624.707031 822.484375 624.707031 825.8125 "/>
<path fill-rule="nonzero" fill="rgb(49.804688%, 4.704285%, 94.921875%)" fill-opacity="1" d="M 998.589844 771.621094 C 998.589844 774.953125 995.890625 777.65625 992.558594 777.65625 C 989.226562 777.65625 986.527344 774.953125 986.527344 771.621094 C 986.527344 768.292969 989.226562 765.589844 992.558594 765.589844 C 995.890625 765.589844 998.589844 768.292969 998.589844 771.621094 "/>
<path fill-rule="nonzero" fill="rgb(25.097656%, 68.554688%, 28.637695%)" fill-opacity="1" d="M 170.527344 372.273438 C 170.527344 376.976562 166.710938 380.792969 162.007812 380.792969 C 157.300781 380.792969 153.484375 376.976562 153.484375 372.273438 C 153.484375 367.566406 157.300781 363.75 162.007812 363.75 C 166.710938 363.75 170.527344 367.566406 170.527344 372.273438 "/>
<path fill-rule="nonzero" fill="rgb(1.960754%, 42.358398%, 94.921875%)" fill-opacity="1" d="M 722.175781 84.460938 C 722.175781 89.171875 718.359375 92.980469 713.65625 92.980469 C 708.949219 92.980469 705.132812 89.171875 705.132812 84.460938 C 705.132812 79.761719 708.949219 75.941406 713.65625 75.941406 C 718.359375 75.941406 722.175781 79.761719 722.175781 84.460938 "/>
<path fill-rule="nonzero" fill="rgb(82.421875%, 13.719177%, 16.479492%)" fill-opacity="1" d="M 762.773438 268.867188 C 762.773438 273.574219 758.957031 277.390625 754.25 277.390625 C 749.542969 277.390625 745.730469 273.574219 745.730469 268.867188 C 745.730469 264.160156 749.542969 260.347656 754.25 260.347656 C 758.957031 260.347656 762.773438 264.160156 762.773438 268.867188 "/>
<path fill-rule="nonzero" fill="rgb(92.576599%, 0%, 54.492188%)" fill-opacity="1" d="M 522.707031 978.078125 C 522.707031 984.453125 517.539062 989.621094 511.164062 989.621094 C 504.789062 989.621094 499.621094 984.453125 499.621094 978.078125 C 499.621094 971.707031 504.789062 966.539062 511.164062 966.539062 C 517.539062 966.539062 522.707031 971.707031 522.707031 978.078125 "/>
<path fill-rule="nonzero" fill="rgb(25.097656%, 68.554688%, 28.637695%)" fill-opacity="1" d="M 902.273438 979.230469 C 902.273438 983.9375 898.457031 987.75 893.75 987.75 C 889.042969 987.75 885.230469 983.9375 885.230469 979.230469 C 885.230469 974.523438 889.042969 970.707031 893.75 970.707031 C 898.457031 970.707031 902.273438 974.523438 902.273438 979.230469 "/>
<path fill-rule="nonzero" fill="rgb(1.960754%, 42.358398%, 94.921875%)" fill-opacity="1" d="M 615.132812 344.699219 C 615.132812 349.402344 611.320312 353.21875 606.613281 353.21875 C 601.90625 353.21875 598.089844 349.402344 598.089844 344.699219 C 598.089844 339.992188 601.90625 336.175781 606.613281 336.175781 C 611.320312 336.175781 615.132812 339.992188 615.132812 344.699219 "/>
<path fill-rule="nonzero" fill="rgb(25.097656%, 68.554688%, 28.637695%)" fill-opacity="1" d="M 170.527344 696.273438 C 170.527344 700.980469 166.710938 704.792969 162.007812 704.792969 C 157.300781 704.792969 153.484375 700.980469 153.484375 696.273438 C 153.484375 691.566406 157.300781 687.75 162.007812 687.75 C 166.710938 687.75 170.527344 691.566406 170.527344 696.273438 "/>
<path fill-rule="nonzero" fill="rgb(99.609375%, 94.921875%, 0%)" fill-opacity="1" d="M 463.378906 763.101562 C 463.378906 767.808594 459.5625 771.621094 454.855469 771.621094 C 450.152344 771.621094 446.335938 767.808594 446.335938 763.101562 C 446.335938 758.394531 450.152344 754.578125 454.855469 754.578125 C 459.5625 754.578125 463.378906 758.394531 463.378906 763.101562 "/>
<path fill-rule="nonzero" fill="rgb(99.609375%, 94.921875%, 0%)" fill-opacity="1" d="M 739.21875 436.613281 C 739.21875 441.316406 735.402344 445.132812 730.699219 445.132812 C 725.992188 445.132812 722.175781 441.316406 722.175781 436.613281 C 722.175781 431.90625 725.992188 428.089844 730.699219 428.089844 C 735.402344 428.089844 739.21875 431.90625 739.21875 436.613281 "/>
<path fill-rule="nonzero" fill="rgb(25.097656%, 68.554688%, 28.637695%)" fill-opacity="1" d="M 556.089844 67.421875 C 556.089844 72.128906 552.277344 75.941406 547.570312 75.941406 C 542.863281 75.941406 539.050781 72.128906 539.050781 67.421875 C 539.050781 62.710938 542.863281 58.898438 547.570312 58.898438 C 552.277344 58.898438 556.089844 62.710938 556.089844 67.421875 "/>
<path fill-rule="nonzero" fill="rgb(49.804688%, 4.704285%, 94.921875%)" fill-opacity="1" d="M 635.71875 996.75 C 635.71875 1001.460938 631.902344 1005.269531 627.199219 1005.269531 C 622.492188 1005.269531 618.675781 1001.460938 618.675781 996.75 C 618.675781 992.046875 622.492188 988.230469 627.199219 988.230469 C 631.902344 988.230469 635.71875 992.046875 635.71875 996.75 "/>
<path fill-rule="nonzero" fill="rgb(1.960754%, 42.358398%, 94.921875%)" fill-opacity="1" d="M 739.21875 780.144531 C 739.21875 784.851562 735.402344 788.664062 730.699219 788.664062 C 725.992188 788.664062 722.175781 784.851562 722.175781 780.144531 C 722.175781 775.4375 725.992188 771.621094 730.699219 771.621094 C 735.402344 771.621094 739.21875 775.4375 739.21875 780.144531 "/>
<path fill-rule="nonzero" fill="rgb(1.960754%, 42.358398%, 94.921875%)" fill-opacity="1" d="M 856.3125 593.378906 C 856.3125 598.085938 852.5 601.898438 847.792969 601.898438 C 843.085938 601.898438 839.273438 598.085938 839.273438 593.378906 C 839.273438 588.671875 843.085938 584.855469 847.792969 584.855469 C 852.5 584.855469 856.3125 588.671875 856.3125 593.378906 "/>
<path fill-rule="nonzero" fill="rgb(1.960754%, 42.358398%, 94.921875%)" fill-opacity="1" d="M 245.082031 961.707031 C 245.082031 966.414062 241.265625 970.230469 236.558594 970.230469 C 231.851562 970.230469 228.039062 966.414062 228.039062 961.707031 C 228.039062 957.003906 231.851562 953.1875 236.558594 953.1875 C 241.265625 953.1875 245.082031 957.003906 245.082031 961.707031 "/>
<path fill-rule="nonzero" fill="rgb(82.421875%, 13.719177%, 16.479492%)" fill-opacity="1" d="M 146.71875 866.984375 C 146.71875 871.691406 142.902344 875.507812 138.199219 875.507812 C 133.492188 875.507812 129.675781 871.691406 129.675781 866.984375 C 129.675781 862.277344 133.492188 858.464844 138.199219 858.464844 C 142.902344 858.464844 146.71875 862.277344 146.71875 866.984375 "/>
<path fill-rule="nonzero" fill="rgb(82.421875%, 13.719177%, 16.479492%)" fill-opacity="1" d="M 574.71875 193.808594 C 571.910156 200.832031 563.867188 204.21875 556.757812 201.375 C 549.648438 198.53125 546.164062 190.53125 548.972656 183.511719 C 551.78125 176.488281 559.820312 173.105469 566.929688 175.945312 C 574.039062 178.789062 577.523438 186.789062 574.71875 193.808594 "/>
<path fill-rule="nonzero" fill="rgb(0.392151%, 68.164062%, 94.139099%)" fill-opacity="1" d="M 249.492188 664.210938 C 253.1875 670.808594 250.765625 679.191406 244.085938 682.933594 C 237.402344 686.671875 228.992188 684.355469 225.296875 677.757812 C 221.605469 671.160156 224.023438 662.777344 230.707031 659.035156 C 237.386719 655.296875 245.796875 657.613281 249.492188 664.210938 "/>
<path fill-rule="nonzero" fill="rgb(99.609375%, 94.921875%, 0%)" fill-opacity="1" d="M 622.285156 733.859375 C 614.722656 733.707031 608.71875 727.378906 608.871094 719.722656 C 609.023438 712.066406 615.277344 705.984375 622.839844 706.136719 C 630.398438 706.285156 636.40625 712.617188 636.25 720.269531 C 636.097656 727.925781 629.84375 734.011719 622.285156 733.859375 "/>
<path fill-rule="nonzero" fill="rgb(25.097656%, 68.554688%, 28.637695%)" fill-opacity="1" d="M 333.03125 400.71875 C 325.472656 400.566406 319.46875 394.238281 319.621094 386.582031 C 319.773438 378.925781 326.027344 372.84375 333.589844 372.996094 C 341.148438 373.148438 347.152344 379.476562 347 387.132812 C 346.847656 394.789062 340.59375 400.871094 333.03125 400.71875 "/>
<path fill-rule="nonzero" fill="rgb(82.421875%, 13.719177%, 16.479492%)" fill-opacity="1" d="M 282.632812 1039.441406 C 275.070312 1039.289062 269.066406 1032.960938 269.21875 1025.308594 C 269.375 1017.648438 275.628906 1011.570312 283.1875 1011.71875 C 290.75 1011.871094 296.753906 1018.199219 296.601562 1025.859375 C 296.445312 1033.511719 290.191406 1039.589844 282.632812 1039.441406 "/>
<path fill-rule="nonzero" fill="rgb(92.576599%, 0%, 54.492188%)" fill-opacity="1" d="M 908.804688 186.886719 C 907.226562 194.28125 899.878906 198.984375 892.390625 197.390625 C 884.902344 195.792969 880.105469 188.503906 881.683594 181.105469 C 883.257812 173.710938 890.609375 169.007812 898.097656 170.605469 C 905.585938 172.199219 910.378906 179.488281 908.804688 186.886719 "/>
<path fill-rule="nonzero" fill="rgb(0.392151%, 68.164062%, 94.139099%)" fill-opacity="1" d="M 3138.828125 921.011719 L 4010.191406 42.539062 L 3211.828125 204.636719 Z M 4019.210938 37.691406 L 3134.988281 929.117188 L 3135.421875 924.917969 L 3209.058594 202.171875 L 3210.140625 201.953125 L 4019.210938 37.691406 "/>
<path fill-rule="nonzero" fill="rgb(82.421875%, 13.719177%, 16.479492%)" fill-opacity="1" d="M 3469.128906 905.945312 L 3809.238281 -92.78125 L 3532.609375 -25.609375 Z M 3813.820312 -96.949219 L 3812.949219 -94.390625 L 3464.570312 928.605469 L 3529.769531 -27.960938 L 3530.828125 -28.21875 L 3813.820312 -96.949219 "/>
<path fill-rule="nonzero" fill="rgb(49.804688%, 4.704285%, 94.921875%)" fill-opacity="1" d="M 4255.921875 796.859375 L 4041.878906 421.324219 L 3472.648438 922.785156 Z M 4042.671875 416.664062 L 4260.640625 799.101562 L 4258.519531 799.441406 L 3462.96875 927.34375 L 4042.671875 416.664062 "/>
<path fill-rule="nonzero" fill="rgb(99.609375%, 94.921875%, 0%)" fill-opacity="1" d="M 3236.738281 -40.210938 L 2946.148438 -40.210938 L 3418.359375 1071.878906 Z M 2941.640625 -43.171875 L 3239.300781 -43.171875 L 3239.5 -41.929688 L 3425.328125 1095.960938 L 2941.640625 -43.171875 "/>
<path fill-rule="nonzero" fill="rgb(92.576599%, 0%, 54.492188%)" fill-opacity="1" d="M 4301.839844 672.84375 L 3408.101562 397.011719 L 4014.558594 1081.519531 Z M 3398.828125 391.046875 L 3403.910156 392.617188 L 4306.628906 671.21875 L 4014.839844 1086.332031 L 4013.570312 1084.898438 L 3398.828125 391.046875 "/>
<path fill-rule="nonzero" fill="rgb(49.804688%, 4.704285%, 94.921875%)" fill-opacity="1" d="M 3419.171875 13.769531 L 2785.789062 -107.839844 L 2995.019531 554.273438 Z M 2781.429688 -111.699219 L 3424.53125 11.78125 L 3423.039062 13.679688 L 2993.871094 560.578125 L 2781.429688 -111.699219 "/>
<path fill-rule="nonzero" fill="rgb(99.609375%, 94.921875%, 0%)" fill-opacity="1" d="M 4343.429688 883.203125 L 4051.320312 288.207031 L 3578.941406 1063.511719 Z M 4051.609375 281.992188 L 4052.820312 284.453125 L 4347.761719 885.230469 L 3572.679688 1068.03125 L 4051.609375 281.992188 "/>
<path fill-rule="nonzero" fill="rgb(25.097656%, 68.554688%, 28.637695%)" fill-opacity="1" d="M 3899.828125 -85.699219 L 3515.570312 -108.179688 C 3523.898438 -78.820312 3698.421875 263.808594 3793.46875 448.535156 Z M 3512.261719 -111.339844 L 3513.851562 -111.25 L 3903.441406 -88.460938 L 3903.109375 -86.789062 L 3794.738281 457.535156 L 3792.769531 453.707031 C 3781.308594 431.453125 3512.261719 -91.46875 3512.261719 -109.769531 L 3512.261719 -111.339844 "/>
<path fill-rule="nonzero" fill="rgb(92.576599%, 0%, 54.492188%)" fill-opacity="1" d="M 2980.578125 554.273438 C 2980.578125 546.710938 2986.789062 540.582031 2994.449219 540.582031 C 3002.101562 540.582031 3008.308594 546.710938 3008.308594 554.273438 C 3008.308594 561.835938 3002.101562 567.96875 2994.449219 567.96875 C 2986.789062 567.96875 2980.578125 561.835938 2980.578125 554.273438 "/>
<path fill-rule="nonzero" fill="rgb(99.609375%, 94.921875%, 0%)" fill-opacity="1" d="M 3777.960938 448.535156 C 3777.960938 440.972656 3784.171875 434.84375 3791.828125 434.84375 C 3799.480469 434.84375 3805.691406 440.972656 3805.691406 448.535156 C 3805.691406 456.097656 3799.480469 462.226562 3791.828125 462.226562 C 3784.171875 462.226562 3777.960938 456.097656 3777.960938 448.535156 "/>
<path fill-rule="nonzero" fill="rgb(82.421875%, 13.719177%, 16.479492%)" fill-opacity="1" d="M 3391.441406 399.265625 C 3391.441406 391.703125 3397.648438 385.574219 3405.308594 385.574219 C 3412.960938 385.574219 3419.171875 391.703125 3419.171875 399.265625 C 3419.171875 406.828125 3412.960938 412.960938 3405.308594 412.960938 C 3397.648438 412.960938 3391.441406 406.828125 3391.441406 399.265625 "/>
<path fill-rule="nonzero" fill="rgb(49.804688%, 4.704285%, 94.921875%)" fill-opacity="1" d="M 3192.738281 206.890625 C 3192.738281 199.324219 3198.949219 193.195312 3206.609375 193.195312 C 3214.261719 193.195312 3220.46875 199.324219 3220.46875 206.890625 C 3220.46875 214.449219 3214.261719 220.582031 3206.609375 220.582031 C 3198.949219 220.582031 3192.738281 214.449219 3192.738281 206.890625 "/>
<path fill-rule="nonzero" fill="rgb(92.576599%, 0%, 54.492188%)" fill-opacity="1" d="M 3459.070312 921.011719 C 3459.070312 914.964844 3464.03125 910.0625 3470.160156 910.0625 C 3476.28125 910.0625 3481.25 914.964844 3481.25 921.011719 C 3481.25 927.0625 3476.28125 931.964844 3470.160156 931.964844 C 3464.03125 931.964844 3459.070312 927.0625 3459.070312 921.011719 "/>
<path fill-rule="nonzero" fill="rgb(82.421875%, 13.719177%, 16.479492%)" fill-opacity="1" d="M 3415.53125 1092.339844 C 3415.53125 1087.691406 3419.351562 1083.917969 3424.050781 1083.917969 C 3428.761719 1083.917969 3432.570312 1087.691406 3432.570312 1092.339844 C 3432.570312 1096.988281 3428.761719 1100.75 3424.050781 1100.75 C 3419.351562 1100.75 3415.53125 1096.988281 3415.53125 1092.339844 "/>
<path fill-rule="nonzero" fill="rgb(25.097656%, 68.554688%, 28.637695%)" fill-opacity="1" d="M 3743.550781 940.164062 C 3743.550781 935.515625 3747.371094 931.746094 3752.070312 931.746094 C 3756.78125 931.746094 3760.589844 935.515625 3760.589844 940.164062 C 3760.589844 944.8125 3756.78125 948.578125 3752.070312 948.578125 C 3747.371094 948.578125 3743.550781 944.8125 3743.550781 940.164062 "/>
<path fill-rule="nonzero" fill="rgb(82.421875%, 13.719177%, 16.479492%)" fill-opacity="1" d="M 3851.621094 1083.917969 C 3851.621094 1079.269531 3855.429688 1075.511719 3860.140625 1075.511719 C 3864.839844 1075.511719 3868.660156 1079.269531 3868.660156 1083.917969 C 3868.660156 1088.570312 3864.839844 1092.339844 3860.140625 1092.339844 C 3855.429688 1092.339844 3851.621094 1088.570312 3851.621094 1083.917969 "/>
<path fill-rule="nonzero" fill="rgb(25.097656%, 68.554688%, 28.637695%)" fill-opacity="1" d="M 3707.699219 587.589844 C 3707.699219 582.941406 3711.519531 579.175781 3716.21875 579.175781 C 3720.929688 579.175781 3724.738281 582.941406 3724.738281 587.589844 C 3724.738281 592.238281 3720.929688 596.003906 3716.21875 596.003906 C 3711.519531 596.003906 3707.699219 592.238281 3707.699219 587.589844 "/>
<path fill-rule="nonzero" fill="rgb(1.960754%, 42.358398%, 94.921875%)" fill-opacity="1" d="M 3578.300781 512.195312 C 3578.300781 508.90625 3581 506.238281 3584.328125 506.238281 C 3587.660156 506.238281 3590.359375 508.90625 3590.359375 512.195312 C 3590.359375 515.484375 3587.660156 518.152344 3584.328125 518.152344 C 3581 518.152344 3578.300781 515.484375 3578.300781 512.195312 "/>
<path fill-rule="nonzero" fill="rgb(1.960754%, 42.358398%, 94.921875%)" fill-opacity="1" d="M 3640.148438 826.726562 C 3640.148438 823.4375 3642.851562 820.769531 3646.179688 820.769531 C 3649.511719 820.769531 3652.210938 823.4375 3652.210938 826.726562 C 3652.210938 830.015625 3649.511719 832.683594 3646.179688 832.683594 C 3642.851562 832.683594 3640.148438 830.015625 3640.148438 826.726562 "/>
<path fill-rule="nonzero" fill="rgb(49.804688%, 4.704285%, 94.921875%)" fill-opacity="1" d="M 3096.699219 587.589844 C 3096.699219 584.300781 3099.398438 581.632812 3102.730469 581.632812 C 3106.058594 581.632812 3108.761719 584.300781 3108.761719 587.589844 C 3108.761719 590.878906 3106.058594 593.546875 3102.730469 593.546875 C 3099.398438 593.546875 3096.699219 590.878906 3096.699219 587.589844 "/>
<path fill-rule="nonzero" fill="rgb(49.804688%, 4.704285%, 94.921875%)" fill-opacity="1" d="M 3405.960938 291.058594 C 3405.960938 287.769531 3408.660156 285.101562 3411.988281 285.101562 C 3415.320312 285.101562 3418.019531 287.769531 3418.019531 291.058594 C 3418.019531 294.347656 3415.320312 297.015625 3411.988281 297.015625 C 3408.660156 297.015625 3405.960938 294.347656 3405.960938 291.058594 "/>
<path fill-rule="nonzero" fill="rgb(49.804688%, 4.704285%, 94.921875%)" fill-opacity="1" d="M 3032.070312 344.578125 C 3032.070312 341.285156 3034.769531 338.621094 3038.101562 338.621094 C 3041.441406 338.621094 3044.140625 341.285156 3044.140625 344.578125 C 3044.140625 347.867188 3041.441406 350.535156 3038.101562 350.535156 C 3034.769531 350.535156 3032.070312 347.867188 3032.070312 344.578125 "/>
<path fill-rule="nonzero" fill="rgb(1.960754%, 42.358398%, 94.921875%)" fill-opacity="1" d="M 3860.140625 738.976562 C 3860.140625 734.328125 3863.949219 730.5625 3868.660156 730.5625 C 3873.359375 730.5625 3877.179688 734.328125 3877.179688 738.976562 C 3877.179688 743.625 3873.359375 747.390625 3868.660156 747.390625 C 3863.949219 747.390625 3860.140625 743.625 3860.140625 738.976562 "/>
<path fill-rule="nonzero" fill="rgb(1.960754%, 42.358398%, 94.921875%)" fill-opacity="1" d="M 3308.488281 1023.21875 C 3308.488281 1018.570312 3312.300781 1014.800781 3317.011719 1014.800781 C 3321.710938 1014.800781 3325.53125 1018.570312 3325.53125 1023.21875 C 3325.53125 1027.859375 3321.710938 1031.628906 3317.011719 1031.628906 C 3312.300781 1031.628906 3308.488281 1027.859375 3308.488281 1023.21875 "/>
<path fill-rule="nonzero" fill="rgb(82.421875%, 13.719177%, 16.479492%)" fill-opacity="1" d="M 3267.890625 841.097656 C 3267.890625 836.449219 3271.710938 832.683594 3276.410156 832.683594 C 3281.121094 832.683594 3284.929688 836.449219 3284.929688 841.097656 C 3284.929688 845.746094 3281.121094 849.515625 3276.410156 849.515625 C 3271.710938 849.515625 3267.890625 845.746094 3267.890625 841.097656 "/>
<path fill-rule="nonzero" fill="rgb(99.609375%, 94.921875%, 0%)" fill-opacity="1" d="M 3394.949219 508.632812 C 3394.949219 503.984375 3398.761719 500.21875 3403.46875 500.21875 C 3408.171875 500.21875 3411.988281 503.984375 3411.988281 508.632812 C 3411.988281 513.28125 3408.171875 517.050781 3403.46875 517.050781 C 3398.761719 517.050781 3394.949219 513.28125 3394.949219 508.632812 "/>
<path fill-rule="nonzero" fill="rgb(1.960754%, 42.358398%, 94.921875%)" fill-opacity="1" d="M 3128.390625 139.546875 C 3128.390625 134.898438 3132.210938 131.128906 3136.910156 131.128906 C 3141.621094 131.128906 3145.429688 134.898438 3145.429688 139.546875 C 3145.429688 144.191406 3141.621094 147.960938 3136.910156 147.960938 C 3132.210938 147.960938 3128.390625 144.191406 3128.390625 139.546875 "/>
<path fill-rule="nonzero" fill="rgb(49.804688%, 4.704285%, 94.921875%)" fill-opacity="1" d="M 3415.53125 766.207031 C 3415.53125 761.5625 3419.351562 757.792969 3424.050781 757.792969 C 3428.761719 757.792969 3432.570312 761.5625 3432.570312 766.207031 C 3432.570312 770.855469 3428.761719 774.625 3424.050781 774.625 C 3419.351562 774.625 3415.53125 770.855469 3415.53125 766.207031 "/>
<path fill-rule="nonzero" fill="rgb(1.960754%, 42.358398%, 94.921875%)" fill-opacity="1" d="M 3860.140625 418.992188 C 3860.140625 414.347656 3863.949219 410.578125 3868.660156 410.578125 C 3873.359375 410.578125 3877.179688 414.347656 3877.179688 418.992188 C 3877.179688 423.640625 3873.359375 427.410156 3868.660156 427.410156 C 3863.949219 427.410156 3860.140625 423.640625 3860.140625 418.992188 "/>
<path fill-rule="nonzero" fill="rgb(82.421875%, 13.719177%, 16.479492%)" fill-opacity="1" d="M 3567.289062 352.992188 C 3567.289062 348.34375 3571.101562 344.578125 3575.808594 344.578125 C 3580.511719 344.578125 3584.328125 348.34375 3584.328125 352.992188 C 3584.328125 357.640625 3580.511719 361.40625 3575.808594 361.40625 C 3571.101562 361.40625 3567.289062 357.640625 3567.289062 352.992188 "/>
<path fill-rule="nonzero" fill="rgb(25.097656%, 68.554688%, 28.637695%)" fill-opacity="1" d="M 3291.449219 675.433594 C 3291.449219 670.785156 3295.261719 667.019531 3299.96875 667.019531 C 3304.671875 667.019531 3308.488281 670.785156 3308.488281 675.433594 C 3308.488281 680.082031 3304.671875 683.847656 3299.96875 683.847656 C 3295.261719 683.847656 3291.449219 680.082031 3291.449219 675.433594 "/>
<path fill-rule="nonzero" fill="rgb(99.609375%, 94.921875%, 0%)" fill-opacity="1" d="M 3474.570312 1040.050781 C 3474.570312 1035.398438 3478.390625 1031.628906 3483.089844 1031.628906 C 3487.800781 1031.628906 3491.621094 1035.398438 3491.621094 1040.050781 C 3491.621094 1044.691406 3487.800781 1048.460938 3483.089844 1048.460938 C 3478.390625 1048.460938 3474.570312 1044.691406 3474.570312 1040.050781 "/>
<path fill-rule="nonzero" fill="rgb(92.576599%, 0%, 54.492188%)" fill-opacity="1" d="M 3394.949219 122.242188 C 3394.949219 117.59375 3398.761719 113.824219 3403.46875 113.824219 C 3408.171875 113.824219 3411.988281 117.59375 3411.988281 122.242188 C 3411.988281 126.890625 3408.171875 130.65625 3403.46875 130.65625 C 3398.761719 130.65625 3394.949219 126.890625 3394.949219 122.242188 "/>
<path fill-rule="nonzero" fill="rgb(1.960754%, 42.358398%, 94.921875%)" fill-opacity="1" d="M 3291.449219 336.160156 C 3291.449219 331.515625 3295.261719 327.746094 3299.96875 327.746094 C 3304.671875 327.746094 3308.488281 331.515625 3308.488281 336.160156 C 3308.488281 340.808594 3304.671875 344.578125 3299.96875 344.578125 C 3295.261719 344.578125 3291.449219 340.808594 3291.449219 336.160156 "/>
<path fill-rule="nonzero" fill="rgb(1.960754%, 42.358398%, 94.921875%)" fill-opacity="1" d="M 3174.351562 520.609375 C 3174.351562 515.964844 3178.160156 512.195312 3182.871094 512.195312 C 3187.578125 512.195312 3191.390625 515.964844 3191.390625 520.609375 C 3191.390625 525.257812 3187.578125 529.027344 3182.871094 529.027344 C 3178.160156 529.027344 3174.351562 525.257812 3174.351562 520.609375 "/>
<path fill-rule="nonzero" fill="rgb(1.960754%, 42.358398%, 94.921875%)" fill-opacity="1" d="M 3785.578125 156.847656 C 3785.578125 152.199219 3789.398438 148.433594 3794.101562 148.433594 C 3798.808594 148.433594 3802.628906 152.199219 3802.628906 156.847656 C 3802.628906 161.496094 3798.808594 165.265625 3794.101562 165.265625 C 3789.398438 165.265625 3785.578125 161.496094 3785.578125 156.847656 "/>
<path fill-rule="nonzero" fill="rgb(92.576599%, 0%, 54.492188%)" fill-opacity="1" d="M 3883.949219 250.398438 C 3883.949219 245.75 3887.761719 241.980469 3892.46875 241.980469 C 3897.171875 241.980469 3900.988281 245.75 3900.988281 250.398438 C 3900.988281 255.046875 3897.171875 258.8125 3892.46875 258.8125 C 3887.761719 258.8125 3883.949219 255.046875 3883.949219 250.398438 "/>

</svg>
