<svg width="180" height="50" viewBox="0 0 370.00000000000006 69.08338451167974">
  <defs id="SvgjsDefs1011"></defs>
  <g
    id="SvgjsG1012"
    transform="matrix(1.0637644901772938,0,0,1.0637644901772938,-18.615998287317655,-18.677185927946997)"
    fill="#db6030"
  >
    <g xmlns="http://www.w3.org/2000/svg" data-name="Group">
      <path
        data-name="Compound Path"
        d="M74.2,17.6a8.2,8.2,0,0,0-7.9,6.2H57.9a8.2,8.2,0,1,0,0,4h8.4a8.2,8.2,0,1,0,7.9-10.2ZM50,29.9a4.2,4.2,0,1,1,4.2-4.2A4.2,4.2,0,0,1,50,29.9Zm24.2,0a4.2,4.2,0,1,1,4.2-4.2A4.2,4.2,0,0,1,74.2,29.9Z"
      ></path>
      <path
        data-name="Compound Path"
        d="M25.8,66.1a8.2,8.2,0,1,0,8.2,8.2A8.2,8.2,0,0,0,25.8,66.1Zm0,12.3a4.2,4.2,0,1,1,4.2-4.2A4.2,4.2,0,0,1,25.8,78.4Z"
      ></path>
      <path
        data-name="Compound Path"
        d="M74.2,41.4a8.1,8.1,0,0,0-5.5,14.2L55.8,68.6A8.2,8.2,0,0,0,52,66.3V57.5a8.2,8.2,0,1,0-4,0v8.8a8.2,8.2,0,1,0,9.9,5.8L72.5,57.6l1.7.2a8.2,8.2,0,1,0,0-16.3ZM45.8,49.6A4.2,4.2,0,1,1,50,53.8,4.2,4.2,0,0,1,45.8,49.6ZM50,78.4a4.2,4.2,0,1,1,4.2-4.2A4.2,4.2,0,0,1,50,78.4ZM74.2,53.8a4.2,4.2,0,1,1,4.2-4.2A4.2,4.2,0,0,1,74.2,53.8Z"
      ></path>
      <path
        data-name="Compound Path"
        d="M74.2,66.1a8.2,8.2,0,1,0,8.2,8.2A8.2,8.2,0,0,0,74.2,66.1Zm0,12.3a4.2,4.2,0,1,1,4.2-4.2A4.2,4.2,0,0,1,74.2,78.4Z"
      ></path>
      <path
        data-name="Compound Path"
        d="M33.9,25.8a8.2,8.2,0,1,0-9.8,8v8.6a8.2,8.2,0,1,0,4,.2V33.6A8.2,8.2,0,0,0,33.9,25.8Zm-12.3,0a4.2,4.2,0,1,1,4.2,4.2A4.2,4.2,0,0,1,21.6,25.8Zm8.3,24.6a4.2,4.2,0,1,1-4.2-4.2A4.2,4.2,0,0,1,29.9,50.4Z"
      ></path>
    </g>
  </g>
  <g
    id="SvgjsG1013"
    transform="matrix(2.3785252896409004,0,0,2.3785252896409004,89.04859192564827,-0.9381585148630638)"
    fill="#eeeeee"
  >
    <path d="M12.36 20 l-0.98 -2.32 l-6.58 0 l-0.98 2.32 l-3.42 0 l6.22 -14 l2.94 0 l6.22 14 l-3.42 0 z M5.92 15.059999999999999 l4.36 0 l-2.18 -5.16 z M20.36 5.859999999999999 l0 2.66 l-3.16 0 l0 -2.66 l3.16 0 z M20.36 9.6 l0 10.4 l-3.16 0 l0 -10.4 l3.16 0 z M42.3 9.44 c2.22 0 4.18 1.44 4.18 4.96 l0 5.6 l-3.16 0 l0 -5.5 c0 -1.32 -0.56 -2.32 -2.02 -2.32 c-1.22 0 -2.04 1.08 -2.28 2.04 l0 5.78 l-3.16 0 l0 -5.5 c0 -1.32 -0.82 -2.32 -2.02 -2.32 c-1.3 0 -2.08 0.88 -2.28 2.04 l0 5.78 l-3.16 0 l0 -10.4 l3.16 0 l0 1.9 c0.04 -0.48 1.06 -2.06 3.1 -2.06 c1.5 0 2.94 0.8 3.8 2.26 c0.24 -0.56 1.44 -2.26 3.84 -2.26 z M55.879999999999995 9.6 l3.16 0 l0 10.4 l-3.16 0 l0 -1.04 c-0.14 0.36 -1.08 1.24 -2.68 1.24 c-2.38 0 -5.12 -1.7 -5.12 -5.42 c0 -3.58 2.74 -5.36 5.12 -5.36 c1.6 0 2.54 0.92 2.68 1.14 l0 -0.96 z M53.66 17.42 c1.3 0 2.36 -0.9 2.36 -2.64 c0 -1.68 -1.06 -2.58 -2.36 -2.58 c-1.36 0 -2.52 0.92 -2.52 2.58 c0 1.72 1.16 2.64 2.52 2.64 z M67.46 9.44 c1.94 0 3.92 1.3 3.92 4.6 l0 5.96 l-3.16 0 l0 -5.74 c0 -1.58 -0.54 -2.08 -1.54 -2.08 c-1.42 0 -2.24 1.38 -2.44 1.98 l0 5.84 l-3.16 0 l0 -10.4 l3.16 0 l0 1.8 c0.2 -0.5 1.26 -1.96 3.22 -1.96 z M80.78 9.6 l3.16 0 l0 10.4 l-3.16 0 l0 -1.04 c-0.14 0.36 -1.08 1.24 -2.68 1.24 c-2.38 0 -5.12 -1.7 -5.12 -5.42 c0 -3.58 2.74 -5.36 5.12 -5.36 c1.6 0 2.54 0.92 2.68 1.14 l0 -0.96 z M78.56 17.42 c1.3 0 2.36 -0.9 2.36 -2.64 c0 -1.68 -1.06 -2.58 -2.36 -2.58 c-1.36 0 -2.52 0.92 -2.52 2.58 c0 1.72 1.16 2.64 2.52 2.64 z M93.46000000000001 9.6 l3.16 0 l0 10.4 c0 3.16 -3.2 4.12 -5.52 4.12 c-1.1 0 -2.1 -0.18 -2.74 -0.52 l0 -2.58 c0.64 0.34 1.6 0.48 2.74 0.48 c1.86 0 2.36 -0.96 2.36 -1.5 l0 -1.04 c-0.14 0.36 -1.08 1.24 -2.68 1.24 c-2.38 0 -5.12 -1.7 -5.12 -5.42 c0 -3.58 2.74 -5.36 5.12 -5.36 c1.6 0 2.54 0.92 2.68 1.14 l0 -0.96 z M91.24000000000001 17.42 c1.3 0 2.36 -0.9 2.36 -2.64 c0 -1.68 -1.06 -2.58 -2.36 -2.58 c-1.36 0 -2.52 0.92 -2.52 2.58 c0 1.72 1.16 2.64 2.52 2.64 z M103.82000000000002 9.42 c2.36 0 5.66 1.78 5 6.48 l-7.26 0 c0.36 1.08 1.3 1.64 2.56 1.64 c1.28 0 1.68 -0.28 2.4 -0.58 l1.74 1.68 c-0.92 0.9 -2.16 1.56 -4.26 1.56 c-2.58 0 -5.66 -1.78 -5.66 -5.36 c0 -3.64 3.12 -5.42 5.48 -5.42 z M103.82000000000002 12.120000000000001 c-0.9 0 -1.82 0.52 -2.22 1.56 l4.42 0 c-0.32 -1.04 -1.3 -1.56 -2.2 -1.56 z M117.30000000000003 9.44 c0.28 0 0.56 0 0.82 0.06 l0 3.02 c-0.24 -0.06 -0.52 -0.06 -0.72 -0.06 c-1.92 0 -3.46 1.38 -3.62 3.3 l0 4.24 l-3.16 0 l0 -10.4 l3.16 0 l0 2.54 c0.48 -1.56 1.68 -2.7 3.52 -2.7 z"></path>
  </g>
</svg>
