<?xml version="1.0" encoding="UTF-8"?>
<svg xmlns="http://www.w3.org/2000/svg" xmlns:xlink="http://www.w3.org/1999/xlink" width="4000" height="2500" viewBox="0 0 4000 2500">

<path fill-rule="nonzero" fill="url(#linear-pattern-0)" d="M -1250 1250 L 2000 4500 L 5250 1250 L 2000 -2000 Z M -1250 1250 "/>
<path fill-rule="nonzero" fill="rgb(38.075256%, 49.940491%, 78.666687%)" fill-opacity="1" d="M 2003.070312 2281.71875 C 1824.269531 2281.75 1544.78125 1883.609375 1296.148438 1529.449219 C 1097.039062 1245.828125 908.984375 977.941406 828.460938 1006.179688 C 791.710938 1019.078125 777.984375 1091.378906 786.511719 1227.230469 C 799.964844 1441.46875 765.6875 1571.660156 681.71875 1625.25 C 651.273438 1644.679688 615.222656 1653.171875 574.941406 1653.171875 C 432.148438 1653.179688 235.863281 1546.578125 44.625 1442.730469 C -188.207031 1316.28125 -428.972656 1185.53125 -554.492188 1263.210938 C -623.058594 1305.640625 -653.621094 1405.289062 -647.929688 1567.851562 L -651.679688 1567.980469 C -657.421875 1403.960938 -626.277344 1303.21875 -556.46875 1260.019531 C -429.089844 1181.210938 -198.117188 1306.640625 46.417969 1439.429688 C 290.644531 1572.058594 543.191406 1709.210938 679.703125 1622.089844 C 762.417969 1569.300781 796.128906 1440.21875 782.769531 1227.46875 C 774.125 1089.710938 788.664062 1016.171875 827.222656 1002.640625 C 910.355469 973.511719 1090.589844 1230.109375 1299.21875 1527.300781 C 1565.609375 1906.75 1867.5 2336.871094 2040.03125 2271.378906 C 2112.210938 2244 2157.199219 2128.101562 2173.75 1926.921875 C 2192.339844 1701.039062 2175.839844 1358.550781 2124.71875 908.949219 C 2039.921875 163.25 2086.121094 -241.539062 2265.941406 -328.539062 C 2487.21875 -435.589844 2876.109375 -48.679688 3252.210938 325.480469 C 3604.601562 676.039062 3937.449219 1007.171875 4117.949219 928.371094 C 4219.71875 883.960938 4263.941406 712.261719 4253.128906 403.460938 L 4256.878906 403.320312 C 4267.75 713.839844 4222.789062 886.710938 4119.449219 931.808594 C 4100.839844 939.941406 4080.640625 943.789062 4059.039062 943.789062 C 3868.441406 943.808594 3566.921875 643.839844 3249.570312 328.140625 C 2874.390625 -45.101562 2486.421875 -431.050781 2267.578125 -325.160156 C 2089.359375 -238.941406 2043.851562 164.601562 2128.449219 908.519531 C 2226.25 1768.601562 2197.761719 2215.550781 2041.359375 2274.890625 C 2029.199219 2279.5 2016.410156 2281.71875 2003.070312 2281.71875 "/>
<path fill-rule="nonzero" fill="rgb(42.506409%, 54.173279%, 80.94635%)" fill-opacity="1" d="M 2002.148438 2291.769531 C 1820.101562 2291.800781 1539.75 1904.050781 1290.25 1558.988281 C 1089.851562 1281.828125 900.601562 1020.019531 818.40625 1049.171875 C 781.039062 1062.429688 766.492188 1133.558594 773.933594 1266.628906 C 785.578125 1474.859375 750.382812 1602.539062 666.320312 1656.949219 C 633.914062 1677.929688 595.28125 1687.03125 552.007812 1687.039062 C 406.875 1687.058594 209.253906 1584.738281 16.648438 1485.039062 C -220.683594 1362.179688 -466.097656 1235.140625 -594.128906 1315.441406 C -662.789062 1358.5 -694.085938 1456.230469 -689.804688 1614.210938 L -693.554688 1614.308594 C -697.875 1454.890625 -666.003906 1356.078125 -596.121094 1312.261719 C -466.257812 1230.820312 -230.863281 1352.699219 18.371094 1481.710938 C 267.453125 1610.648438 525.007812 1743.96875 664.285156 1653.800781 C 747.113281 1600.191406 781.753906 1473.609375 770.1875 1266.839844 C 762.644531 1131.878906 778.003906 1059.519531 817.148438 1045.628906 C 901.949219 1015.53125 1083.300781 1266.371094 1293.289062 1556.789062 C 1561.648438 1927.929688 1865.839844 2348.648438 2041.929688 2280.851562 C 2115.328125 2252.609375 2161.921875 2137.96875 2180.410156 1940.101562 C 2201.171875 1718.019531 2187.398438 1382.160156 2139.488281 941.839844 C 2060.199219 213.101562 2110.058594 -184.640625 2291.929688 -274.121094 C 2517.738281 -385.199219 2911.738281 -7.171875 3292.761719 358.421875 C 3611.578125 664.308594 3914.601562 955.050781 4106.890625 955.058594 C 4129.699219 955.058594 4150.949219 950.96875 4170.488281 942.320312 C 4273.46875 896.75 4319.550781 727.878906 4311.359375 426.050781 L 4315.109375 425.941406 C 4323.339844 729.46875 4276.53125 899.5 4172.011719 945.75 C 3985.46875 1028.28125 3647.75 704.210938 3290.171875 361.121094 C 2910.070312 -3.578125 2517.050781 -380.671875 2293.578125 -270.75 C 2113.308594 -182.058594 2064.121094 214.460938 2143.21875 941.441406 C 2234.890625 1783.949219 2202.199219 2223.210938 2043.28125 2284.351562 C 2030.21875 2289.371094 2016.480469 2291.769531 2002.148438 2291.769531 "/>
<path fill-rule="nonzero" fill="rgb(71.386719%, 90.611267%, 94.447327%)" fill-opacity="1" d="M 2001.039062 2301.660156 C 1815.699219 2301.679688 1534.429688 1924.191406 1283.988281 1588.089844 C 1082.191406 1317.269531 891.640625 1061.5 807.738281 1091.53125 C 769.761719 1105.160156 754.390625 1175.148438 760.753906 1305.488281 C 770.632812 1507.820312 734.558594 1633 650.46875 1688.191406 C 506.570312 1782.640625 242.832031 1652.621094 -12.238281 1526.890625 C -265.378906 1402.109375 -504.484375 1284.238281 -635.058594 1367.179688 C -703.769531 1410.828125 -735.757812 1506.648438 -732.851562 1660.128906 L -736.601562 1660.199219 C -739.535156 1505.300781 -706.976562 1408.421875 -637.066406 1364.019531 C -504.710938 1279.960938 -264.691406 1398.269531 -10.582031 1523.53125 C 243.542969 1648.789062 506.316406 1778.308594 648.410156 1685.050781 C 731.296875 1630.660156 766.816406 1506.558594 757.007812 1305.679688 C 750.554688 1173.46875 766.738281 1102.269531 806.472656 1088.011719 C 892.90625 1056.941406 1075.53125 1302.058594 1287 1585.851562 C 1557.46875 1948.820312 1864.050781 2360.238281 2043.878906 2290.078125 C 2118.5 2260.980469 2166.679688 2147.539062 2187.121094 1952.898438 C 2210.039062 1734.539062 2198.988281 1405.191406 2154.269531 974 C 2080.421875 262.011719 2133.890625 -128.808594 2317.730469 -220.78125 C 2548.171875 -336.078125 2947.550781 33.230469 3333.75 390.398438 C 3654.628906 687.148438 3959.730469 969.28125 4155.628906 969.308594 C 4180.199219 969.320312 4203.019531 964.878906 4223.96875 955.480469 C 4328.128906 908.761719 4376.039062 742.660156 4370.441406 447.691406 L 4374.191406 447.621094 C 4379.820312 744.25 4331.179688 911.488281 4225.5 958.910156 C 4204.148438 968.480469 4180.871094 973.011719 4155.871094 973.011719 C 3958.199219 973.03125 3652.628906 690.410156 3331.199219 393.148438 C 2945.941406 36.859375 2547.578125 -331.570312 2319.410156 -217.429688 C 2137.128906 -126.230469 2084.328125 263.359375 2158 973.621094 C 2243.589844 1798.839844 2206.699219 2230.601562 2045.238281 2293.578125 C 2031.230469 2299.039062 2016.460938 2301.648438 2001.039062 2301.660156 "/>
<path fill-rule="nonzero" fill="rgb(52.589417%, 84.262085%, 86.917114%)" fill-opacity="1" d="M 1999.738281 2311.398438 C 1811.050781 2311.429688 1528.769531 1943.988281 1277.300781 1616.699219 C 1074.011719 1352.109375 881.96875 1102.171875 796.46875 1133.238281 C 757.890625 1147.25 741.707031 1216.109375 747.003906 1343.75 C 755.15625 1540.25 718.25 1662.949219 634.179688 1718.878906 C 487.449219 1816.46875 218.273438 1690.28125 -42.039062 1568.25 C -300.253906 1447.210938 -544.152344 1332.859375 -677.308594 1418.5 C -746.023438 1462.691406 -778.664062 1556.621094 -777.097656 1705.660156 L -780.847656 1705.699219 C -782.429688 1555.261719 -749.226562 1460.289062 -679.335938 1415.351562 C -544.4375 1328.609375 -299.625 1443.359375 -40.445312 1564.859375 C 218.929688 1686.449219 487.132812 1812.179688 632.101562 1715.75 C 714.992188 1660.621094 751.347656 1538.988281 743.257812 1343.910156 C 737.886719 1214.421875 754.871094 1144.351562 795.191406 1129.71875 C 883.273438 1097.710938 1067.25 1337.160156 1280.269531 1614.410156 C 1553.019531 1969.410156 1862.199219 2371.75 2045.851562 2299.121094 C 2121.691406 2269.128906 2171.46875 2156.839844 2193.828125 1965.359375 C 2218.910156 1750.640625 2210.550781 1427.699219 2168.988281 1005.511719 C 2100.539062 310.03125 2157.558594 -73.980469 2343.320312 -168.480469 C 2578.578125 -288.179688 2983.558594 72.589844 3375.199219 421.46875 C 3698.21875 709.210938 4005.449219 982.859375 4205.011719 982.890625 C 4231.449219 982.890625 4255.96875 978.089844 4278.421875 967.878906 C 4383.730469 920 4433.441406 756.628906 4430.410156 468.449219 L 4434.160156 468.410156 C 4437.210938 758.230469 4386.769531 922.730469 4279.980469 971.289062 C 4257.109375 981.691406 4232.121094 986.578125 4205.238281 986.589844 C 4003.96875 986.609375 3696.269531 712.488281 3372.710938 424.269531 C 2982 76.230469 2577.949219 -283.660156 2345.019531 -165.140625 C 2160.800781 -71.421875 2104.441406 311.378906 2172.71875 1005.140625 C 2252.28125 1813.339844 2211.230469 2237.75 2047.230469 2302.609375 C 2032.191406 2308.558594 2016.308594 2311.398438 1999.738281 2311.398438 "/>
<path fill-rule="nonzero" fill="rgb(63.121033%, 65.647888%, 82.841492%)" fill-opacity="1" d="M 1998.261719 2320.96875 C 1806.210938 2320.980469 1522.839844 1963.511719 1270.289062 1644.921875 C 1056.488281 1375.21875 871.816406 1142.320312 784.582031 1174.359375 C 745.390625 1188.761719 728.390625 1256.519531 732.617188 1381.519531 C 739.082031 1572.289062 701.394531 1692.539062 617.402344 1749.121094 C 578.464844 1775.351562 531.023438 1786.46875 477.5 1786.46875 C 325.359375 1786.480469 123.863281 1696.730469 -72.710938 1609.179688 C -336.175781 1491.839844 -585.03125 1381.011719 -720.851562 1469.359375 C -789.539062 1514.039062 -822.808594 1606.101562 -822.558594 1750.78125 L -826.308594 1750.789062 C -826.558594 1604.730469 -792.734375 1511.648438 -722.898438 1466.210938 C -585.378906 1376.761719 -335.613281 1487.988281 -71.183594 1605.761719 C 193.609375 1723.679688 467.421875 1845.640625 615.308594 1746.011719 C 698.140625 1690.210938 735.285156 1571.019531 728.867188 1381.648438 C 724.582031 1254.820312 742.382812 1185.871094 783.289062 1170.839844 C 873.164062 1137.871094 1058.53125 1371.761719 1273.230469 1642.589844 C 1548.410156 1989.730469 1860.351562 2383.230469 2047.921875 2307.921875 C 2124.96875 2277.011719 2176.351562 2165.828125 2200.628906 1977.441406 C 2227.839844 1766.28125 2222.160156 1449.628906 2183.75 1036.308594 C 2120.628906 357.140625 2181.128906 -20.179688 2368.730469 -117.210938 C 2608.859375 -241.410156 3019.769531 110.890625 3417.121094 451.601562 C 3742.339844 730.460938 4051.769531 995.738281 4255.039062 995.769531 C 4283.5 995.78125 4309.839844 990.578125 4333.890625 979.5 C 4440.308594 930.460938 4491.800781 769.769531 4491.320312 488.261719 L 4495.070312 488.261719 C 4495.558594 771.378906 4443.351562 933.179688 4335.460938 982.910156 C 4310.980469 994.179688 4284.160156 999.46875 4255.261719 999.480469 C 4050.328125 999.488281 3740.429688 733.761719 3414.679688 454.449219 C 3018.261719 114.550781 2608.351562 -236.898438 2370.449219 -113.878906 C 2184.371094 -17.628906 2124.519531 358.488281 2187.480469 1035.960938 C 2261.039062 1827.398438 2215.839844 2244.601562 2049.308594 2311.398438 C 2033.148438 2317.890625 2016.089844 2320.96875 1998.261719 2320.96875 "/>
<path fill-rule="nonzero" fill="rgb(46.496582%, 69.282532%, 89.195251%)" fill-opacity="1" d="M 1996.558594 2330.390625 C 1801.089844 2330.398438 1516.550781 1982.699219 1262.839844 1672.660156 C 1047.28125 1409.25 861.132812 1181.761719 772.085938 1214.859375 C 732.292969 1229.648438 714.492188 1296.320312 717.667969 1418.699219 C 722.472656 1603.859375 684.035156 1721.671875 600.15625 1778.859375 C 558.816406 1807.050781 508.042969 1818.890625 450.625 1818.898438 C 296.167969 1818.910156 93.464844 1733.238281 -104.363281 1649.648438 C -373.273438 1536.019531 -627.28125 1428.679688 -765.769531 1519.789062 C -834.382812 1564.921875 -868.242188 1655.109375 -869.277344 1795.511719 L -873.027344 1795.488281 C -871.984375 1653.730469 -837.574219 1562.53125 -767.832031 1516.660156 C -627.652344 1424.449219 -372.761719 1532.171875 -102.902344 1646.191406 C 167.535156 1760.46875 447.183594 1878.640625 598.046875 1775.761719 C 680.785156 1719.339844 718.6875 1602.578125 713.917969 1418.800781 C 710.695312 1294.621094 729.300781 1226.761719 770.777344 1211.339844 C 862.320312 1177.308594 1049.269531 1405.769531 1265.738281 1670.289062 C 1543.53125 2009.738281 1858.339844 2394.46875 2050.019531 2316.511719 C 2128.289062 2284.660156 2181.261719 2174.519531 2207.449219 1989.160156 C 2236.789062 1781.480469 2233.761719 1471.03125 2198.460938 1066.429688 C 2140.621094 403.371094 2204.550781 32.648438 2393.910156 -66.921875 C 2639.089844 -195.828125 3056.199219 148.160156 3459.558594 480.828125 C 3835.46875 790.859375 4190.53125 1083.660156 4390.398438 990.339844 C 4497.898438 940.140625 4551.128906 782.101562 4553.160156 507.191406 L 4556.910156 507.21875 C 4554.871094 783.71875 4500.921875 942.859375 4391.988281 993.738281 C 4190 1088.078125 3834.019531 794.53125 3457.171875 483.730469 C 3054.761719 151.828125 2638.648438 -191.359375 2395.660156 -63.601562 C 2207.78125 35.191406 2144.5 404.71875 2202.199219 1066.109375 C 2269.808594 1841.050781 2220.5 2251.191406 2051.429688 2319.980469 C 2034.078125 2327.039062 2015.75 2330.390625 1996.558594 2330.390625 "/>
<path fill-rule="nonzero" fill="rgb(36.621094%, 43.405151%, 74.801636%)" fill-opacity="1" d="M 1994.679688 2339.660156 C 1795.75 2339.691406 1510.011719 2001.621094 1255.058594 1700.011719 C 1037.621094 1442.761719 849.832031 1220.578125 758.980469 1254.761719 C 718.589844 1269.949219 699.988281 1335.570312 702.109375 1455.371094 C 705.296875 1635 666.152344 1750.378906 582.449219 1808.121094 C 426.894531 1915.429688 140.265625 1800.660156 -136.925781 1689.679688 C -411.46875 1579.761719 -670.792969 1475.949219 -812.027344 1569.808594 C -880.535156 1615.339844 -914.949219 1703.691406 -917.238281 1839.898438 L -920.988281 1839.851562 C -918.679688 1702.308594 -883.714844 1612.949219 -814.101562 1566.691406 C -671.222656 1471.730469 -411.011719 1575.910156 -135.53125 1686.199219 C 140.746094 1796.820312 426.421875 1911.179688 580.320312 1805.039062 C 662.910156 1748.058594 701.519531 1633.710938 698.359375 1455.441406 C 696.207031 1333.851562 715.605469 1267.070312 757.660156 1251.25 C 850.996094 1216.171875 1039.558594 1439.25 1257.929688 1697.578125 C 1538.480469 2029.488281 1856.460938 2405.628906 2052.21875 2324.871094 C 2131.710938 2292.050781 2186.25 2182.929688 2214.339844 2000.519531 C 2245.789062 1796.261719 2245.410156 1491.898438 2213.199219 1095.898438 C 2160.570312 448.730469 2227.859375 84.5 2418.898438 -17.601562 C 2669.238281 -151.378906 3092.839844 184.429688 3502.5 509.179688 C 3883.789062 811.449219 4243.941406 1096.949219 4447.949219 1000.429688 C 4556.480469 949.089844 4611.421875 793.660156 4615.929688 525.261719 L 4619.679688 525.320312 C 4615.148438 795.289062 4559.5 951.808594 4449.558594 1003.820312 C 4243.421875 1101.339844 3882.398438 815.128906 3500.171875 512.121094 C 3091.449219 188.109375 2668.808594 -146.898438 2420.671875 -14.289062 C 2231.078125 87.03125 2164.441406 450.078125 2216.941406 1095.601562 C 2278.640625 1854.28125 2225.230469 2257.511719 2053.648438 2328.328125 C 2035.019531 2336.019531 2015.300781 2339.660156 1994.679688 2339.660156 "/>
<path fill-rule="nonzero" fill="rgb(54.943848%, 82.421875%, 93.455505%)" fill-opacity="1" d="M 1992.558594 2348.789062 C 1790.128906 2348.828125 1503.109375 2020.25 1246.878906 1726.949219 C 1027.441406 1475.769531 837.898438 1258.78125 745.230469 1294.109375 C 704.246094 1309.699219 684.84375 1374.289062 685.921875 1491.550781 C 687.53125 1665.75 647.730469 1778.738281 564.246094 1836.960938 C 517.722656 1869.398438 459.628906 1882.78125 393.632812 1882.78125 C 234.640625 1882.789062 29.699219 1805.148438 -170.445312 1729.328125 C -450.8125 1623.128906 -715.632812 1522.808594 -859.664062 1619.460938 C -928.023438 1665.339844 -962.960938 1751.859375 -966.46875 1883.960938 L -970.21875 1883.859375 C -966.675781 1750.460938 -931.195312 1662.949219 -861.753906 1616.351562 C -716.113281 1518.609375 -450.414062 1619.261719 -169.117188 1725.828125 C 113.199219 1832.769531 405.128906 1943.359375 562.105469 1833.878906 C 644.492188 1776.429688 683.765625 1664.460938 682.171875 1491.578125 C 681.078125 1372.558594 701.265625 1306.820312 743.894531 1290.601562 C 839.035156 1254.410156 1029.339844 1472.238281 1249.699219 1724.480469 C 1533.179688 2048.96875 1854.480469 2416.738281 2054.488281 2333 C 2135.191406 2299.210938 2191.300781 2191.050781 2221.269531 2011.53125 C 2254.820312 1810.621094 2257.058594 1512.25 2227.921875 1124.738281 C 2180.441406 493.261719 2251.011719 135.421875 2443.660156 30.789062 C 2699.289062 -108.019531 3129.710938 219.710938 3545.96875 536.660156 C 3932.878906 831.261719 4298.339844 1109.519531 4506.601562 1009.75 C 4616.121094 957.28125 4672.738281 804.429688 4679.691406 542.449219 L 4683.441406 542.539062 C 4676.441406 806.070312 4619.128906 960 4508.210938 1013.128906 C 4297.890625 1113.898438 3931.550781 834.949219 3543.699219 539.640625 C 3128.390625 223.421875 2698.929688 -103.570312 2445.449219 34.089844 C 2254.230469 137.941406 2184.300781 494.609375 2231.660156 1124.460938 C 2287.5 1867.121094 2230.019531 2263.570312 2055.929688 2336.460938 C 2035.941406 2344.839844 2014.738281 2348.789062 1992.558594 2348.789062 "/>
<path fill-rule="nonzero" fill="rgb(57.463074%, 59.120178%, 82.966614%)" fill-opacity="1" d="M 1990.199219 2357.78125 C 1784.230469 2357.808594 1495.871094 2038.609375 1238.28125 1753.5 C 1016.738281 1508.28125 825.398438 1296.550781 730.832031 1332.921875 C 689.257812 1348.929688 669.070312 1412.5 669.109375 1527.269531 C 669.183594 1696.148438 628.769531 1806.738281 545.554688 1865.371094 C 383.84375 1979.308594 84.527344 1872.179688 -204.941406 1768.578125 C -491.328125 1666.078125 -761.824219 1569.269531 -908.6875 1668.738281 C -976.863281 1714.898438 -1012.289062 1799.601562 -1016.96875 1927.660156 L -1020.71875 1927.519531 C -1015.988281 1798.179688 -980.027344 1712.519531 -910.792969 1665.628906 C -762.347656 1565.109375 -490.984375 1662.230469 -203.679688 1765.050781 C 84.886719 1868.328125 383.273438 1975.109375 543.398438 1862.308594 C 625.539062 1804.429688 665.433594 1694.839844 665.359375 1527.269531 C 665.316406 1410.769531 686.292969 1346.058594 729.484375 1329.421875 C 826.449219 1292.050781 1018.578125 1504.738281 1241.058594 1750.980469 C 1527.660156 2068.191406 1852.46875 2427.738281 2056.851562 2340.921875 C 2138.75 2306.121094 2196.441406 2198.878906 2228.289062 2022.191406 C 2263.921875 1824.539062 2268.75 1532.078125 2242.660156 1152.921875 C 2200.269531 536.941406 2274.058594 185.421875 2468.21875 78.28125 C 2729.230469 -65.75 3166.828125 254.019531 3590 563.261719 C 3982.78125 850.289062 4353.78125 1121.398438 4566.378906 1018.300781 C 4676.851562 964.71875 4735.109375 814.398438 4744.46875 558.738281 L 4748.21875 558.871094 C 4738.800781 816.058594 4679.851562 967.441406 4568.011719 1021.679688 C 4353.390625 1125.761719 3981.5 854 3587.789062 566.289062 C 3165.558594 257.738281 2728.980469 -61.289062 2470.03125 81.558594 C 2277.28125 187.921875 2204.128906 538.28125 2246.398438 1152.660156 C 2296.421875 1879.539062 2234.890625 2269.351562 2058.308594 2344.371094 C 2036.839844 2353.488281 2014.050781 2357.78125 1990.199219 2357.78125 "/>
<path fill-rule="nonzero" fill="rgb(39.260864%, 47.709656%, 77.313232%)" fill-opacity="1" d="M 1987.621094 2366.621094 C 1778.089844 2366.640625 1488.320312 2056.691406 1229.308594 1779.660156 C 1005.539062 1540.320312 812.308594 1333.609375 715.789062 1371.210938 C 673.636719 1387.628906 652.664062 1450.210938 651.679688 1562.519531 C 650.257812 1726.179688 609.261719 1834.410156 526.355469 1893.378906 C 474.128906 1930.53125 407.714844 1945.550781 331.972656 1945.550781 C 168.605469 1945.558594 -38.242188 1875.71875 -240.421875 1807.480469 C -533.019531 1708.710938 -809.386719 1615.421875 -959.152344 1717.671875 C -1027.121094 1764.078125 -1063 1846.960938 -1068.851562 1971.070312 L -1072.601562 1970.890625 C -1066.691406 1845.53125 -1030.269531 1761.691406 -961.265625 1714.578125 C -809.964844 1611.269531 -532.734375 1704.851562 -239.21875 1803.929688 C 55.800781 1903.511719 360.859375 2006.488281 524.183594 1890.320312 C 606.039062 1832.101562 646.515625 1724.871094 647.929688 1562.488281 C 648.925781 1448.46875 670.679688 1384.761719 714.429688 1367.710938 C 813.269531 1329.199219 1007.351562 1536.75 1232.050781 1777.101562 C 1521.949219 2087.160156 1850.519531 2438.589844 2059.339844 2348.578125 C 2142.449219 2312.761719 2201.679688 2206.410156 2235.398438 2032.46875 C 2273.078125 1838.039062 2280.488281 1551.378906 2257.421875 1180.460938 C 2220.050781 579.761719 2296.960938 234.46875 2492.539062 124.851562 C 2759.128906 -24.558594 3204.171875 287.351562 3634.558594 588.960938 C 4033.460938 868.519531 4410.25 1132.570312 4627.289062 1026.058594 C 4738.671875 971.390625 4798.53125 823.570312 4810.289062 574.128906 L 4814.039062 574.308594 C 4802.210938 825.230469 4741.660156 974.109375 4628.941406 1029.421875 C 4409.910156 1136.910156 4032.25 872.25 3632.410156 592.039062 C 3202.960938 291.078125 2758.898438 -20.121094 2494.378906 128.121094 C 2300.179688 236.960938 2223.890625 581.109375 2261.160156 1180.230469 C 2305.410156 1891.550781 2239.878906 2274.851562 2060.828125 2352.03125 C 2037.769531 2361.960938 2013.289062 2366.621094 1987.621094 2366.621094 "/>
<path fill-rule="nonzero" fill="rgb(70.039368%, 71.229553%, 88.50708%)" fill-opacity="1" d="M 1984.78125 2375.351562 C 1771.648438 2375.371094 1480.410156 2074.511719 1219.921875 1805.441406 C 993.808594 1571.871094 798.515625 1370.140625 700.082031 1408.96875 C 657.351562 1425.808594 635.605469 1487.398438 633.605469 1597.28125 C 630.722656 1755.839844 589.1875 1861.71875 506.632812 1920.960938 C 338.535156 2041.601562 25.664062 1942.140625 -276.90625 1845.980469 C -575.90625 1750.941406 -858.328125 1661.179688 -1011.03125 1766.238281 C -1078.75 1812.828125 -1115.070312 1893.929688 -1122.039062 2014.171875 L -1125.78125 2013.960938 C -1118.738281 1892.480469 -1081.898438 1810.441406 -1013.160156 1763.148438 C -858.929688 1657.058594 -575.664062 1747.089844 -275.769531 1842.398438 C 25.917969 1938.289062 337.875 2037.449219 504.445312 1917.910156 C 585.972656 1859.410156 626.992188 1754.511719 629.855469 1597.210938 C 631.890625 1485.648438 654.410156 1422.941406 698.707031 1405.46875 C 799.492188 1365.769531 995.570312 1568.300781 1222.621094 1802.828125 C 1516 2105.878906 1848.550781 2449.359375 2061.941406 2356.039062 C 2146.238281 2319.179688 2207.019531 2213.671875 2242.578125 2042.441406 C 2282.300781 1851.148438 2292.269531 1570.21875 2272.191406 1207.429688 C 2239.789062 621.808594 2319.75 282.660156 2516.660156 170.601562 C 2788.921875 15.671875 3241.78125 319.769531 3679.730469 613.859375 C 4085.011719 886.011719 4467.800781 1143.070312 4689.398438 1033.078125 C 4801.648438 977.359375 4863.070312 832.011719 4877.171875 588.710938 L 4880.921875 588.929688 C 4866.730469 833.679688 4804.628906 980.070312 4691.070312 1036.441406 C 4467.539062 1147.390625 4083.851562 889.761719 3677.640625 616.980469 C 3240.628906 323.519531 2788.738281 20.078125 2518.511719 173.859375 C 2322.960938 285.140625 2243.609375 623.160156 2275.929688 1207.21875 C 2314.460938 1903.199219 2244.949219 2280.101562 2063.449219 2359.46875 C 2038.699219 2370.300781 2012.378906 2375.351562 1984.78125 2375.351562 "/>
<path fill-rule="nonzero" fill="rgb(39.648438%, 80.59082%, 96.21582%)" fill-opacity="1" d="M 1981.691406 2383.941406 C 1764.941406 2383.960938 1472.191406 2092.078125 1210.171875 1830.859375 C 981.597656 1602.980469 784.203125 1406.128906 683.738281 1446.238281 C 640.445312 1463.5 617.929688 1524.140625 614.921875 1631.628906 C 610.617188 1785.199219 568.582031 1888.738281 486.410156 1948.179688 C 315.027344 2072.160156 -4.949219 1976.601562 -314.394531 1884.179688 C -619.996094 1792.898438 -908.648438 1706.691406 -1064.359375 1814.519531 C -1131.808594 1861.238281 -1168.519531 1940.570312 -1176.578125 2057.050781 L -1180.320312 2056.78125 C -1172.179688 1939.101562 -1134.941406 1858.851562 -1066.488281 1811.441406 C -909.304688 1702.570312 -619.8125 1789.039062 -313.324219 1880.578125 C -4.746094 1972.738281 314.332031 2068.03125 484.214844 1945.148438 C 565.375 1886.429688 606.902344 1783.839844 611.171875 1631.519531 C 614.230469 1522.378906 637.515625 1460.628906 682.351562 1442.75 C 785.070312 1401.769531 983.300781 1599.390625 1212.820312 1828.199219 C 1509.871094 2124.351562 1846.539062 2460.070312 2064.710938 2363.25 C 2150.179688 2325.328125 2212.480469 2220.628906 2249.871094 2052.050781 C 2291.621094 1863.851562 2304.109375 1588.539062 2286.988281 1233.769531 C 2259.46875 663.019531 2342.398438 329.941406 2540.53125 215.5 C 2818.628906 54.878906 3279.640625 351.269531 3725.46875 637.910156 C 4137.390625 902.75 4526.480469 1152.898438 4752.679688 1039.359375 C 4865.75 982.609375 4928.699219 839.699219 4945.109375 602.441406 L 4948.851562 602.699219 C 4932.339844 841.390625 4868.71875 985.320312 4754.371094 1042.710938 C 4526.199219 1157.210938 4136.289062 906.5 3723.441406 641.070312 C 3278.558594 355.03125 2818.519531 59.261719 2542.410156 218.738281 C 2345.609375 332.421875 2263.289062 664.371094 2290.738281 1233.589844 C 2323.589844 1914.449219 2250.148438 2285.078125 2066.230469 2366.679688 C 2039.660156 2378.460938 2011.390625 2383.941406 1981.691406 2383.941406 "/>
<path fill-rule="nonzero" fill="rgb(39.648438%, 80.59082%, 96.21582%)" fill-opacity="1" d="M 1978.308594 2392.429688 C 1757.890625 2392.441406 1463.570312 2109.410156 1199.960938 1855.910156 C 968.804688 1633.628906 769.167969 1441.648438 666.6875 1483.011719 C 622.835938 1500.691406 599.566406 1560.398438 595.554688 1665.519531 C 589.878906 1814.199219 547.382812 1915.441406 465.632812 1975.019531 C 290.925781 2102.351562 -36.390625 2010.671875 -352.914062 1922.011719 C -665.3125 1834.511719 -960.394531 1751.859375 -1119.140625 1862.460938 C -1186.300781 1909.25 -1223.371094 1986.820312 -1232.488281 2099.609375 L -1236.230469 2099.308594 C -1227.019531 1985.339844 -1189.421875 1906.859375 -1121.28125 1859.390625 C -961.082031 1747.769531 -665.179688 1830.648438 -351.902344 1918.390625 C -36.238281 2006.808594 290.175781 2098.230469 463.425781 1971.988281 C 544.183594 1913.128906 586.179688 1812.839844 591.804688 1665.371094 C 595.882812 1558.621094 619.914062 1497.828125 665.28125 1479.53125 C 770.054688 1437.261719 970.464844 1630.03125 1202.558594 1853.210938 C 1503.5 2142.601562 1844.578125 2470.601562 2067.589844 2370.238281 C 2154.230469 2331.25 2218.050781 2227.320312 2257.269531 2061.328125 C 2301.019531 1876.148438 2316.019531 1606.378906 2301.851562 1259.511719 C 2279.128906 703.449219 2364.949219 376.371094 2564.199219 259.589844 C 2848.261719 93.109375 3317.800781 381.859375 3771.859375 661.128906 C 4190.671875 918.710938 4586.269531 1162.011719 4817.238281 1044.851562 C 4931.089844 987.109375 4995.511719 846.601562 5014.210938 615.308594 L 5017.949219 615.621094 C 4999.140625 848.320312 4934.039062 989.808594 4818.941406 1048.191406 C 4586.078125 1166.28125 4189.628906 922.460938 3769.890625 664.320312 C 3316.78125 385.640625 2848.238281 97.460938 2566.089844 262.828125 C 2368.148438 378.839844 2282.941406 704.808594 2305.601562 1259.359375 C 2332.800781 1925.320312 2255.449219 2289.808594 2069.128906 2373.660156 C 2040.628906 2386.488281 2010.230469 2392.429688 1978.308594 2392.429688 "/>
<path fill-rule="nonzero" fill="rgb(40.77301%, 52.282715%, 79.933167%)" fill-opacity="1" d="M 1974.648438 2400.78125 C 1750.558594 2400.808594 1454.640625 2126.511719 1189.378906 1880.648438 C 955.5 1663.871094 753.488281 1476.660156 648.925781 1519.320312 C 604.523438 1537.429688 580.503906 1596.210938 575.496094 1699.019531 C 568.488281 1842.941406 525.5625 1941.890625 444.269531 2001.53125 C 378.816406 2049.539062 292.15625 2068.058594 192.691406 2068.058594 C 21.503906 2068.070312 -187.695312 2013.230469 -392.515625 1959.550781 C -711.90625 1875.851562 -1013.589844 1796.769531 -1175.441406 1910.128906 C -1242.269531 1956.941406 -1279.691406 2032.78125 -1289.820312 2141.960938 L -1293.558594 2141.621094 C -1283.320312 2031.261719 -1245.378906 1954.539062 -1177.589844 1907.058594 C -1014.320312 1792.710938 -711.824219 1871.988281 -391.5625 1955.921875 C -68.59375 2040.570312 265.378906 2128.109375 442.050781 1998.5 C 522.378906 1939.578125 564.800781 1841.550781 571.75 1698.828125 C 576.835938 1594.421875 601.621094 1534.570312 647.511719 1515.851562 C 754.304688 1472.320312 957.109375 1660.25 1191.929688 1877.898438 C 1496.960938 2160.609375 1842.671875 2481.070312 2070.660156 2376.96875 C 2158.449219 2336.890625 2223.761719 2233.699219 2264.78125 2070.261719 C 2310.5 1888.058594 2327.980469 1623.75 2316.71875 1284.679688 C 2298.75 743.070312 2387.359375 421.910156 2587.648438 302.871094 C 2877.859375 130.371094 3356.261719 411.558594 3818.890625 683.511719 C 4244.859375 933.898438 4647.199219 1170.398438 4883.070312 1049.578125 C 4997.648438 990.890625 5063.519531 852.769531 5084.460938 627.328125 L 5088.191406 627.671875 C 5067.128906 854.488281 5000.589844 993.589844 4884.78125 1052.921875 C 4647.078125 1174.671875 4243.878906 937.671875 3816.988281 686.738281 C 3355.28125 415.351562 2877.859375 134.730469 2589.558594 306.089844 C 2390.558594 424.371094 2302.539062 744.429688 2320.46875 1284.558594 C 2342.089844 1935.800781 2260.890625 2294.25 2072.21875 2380.378906 C 2041.640625 2394.339844 2008.96875 2400.78125 1974.648438 2400.78125 "/>
<path fill-rule="nonzero" fill="rgb(66.036987%, 68.067932%, 84.431458%)" fill-opacity="1" d="M 1970.679688 2409.039062 C 1742.878906 2409.039062 1445.308594 2143.351562 1178.378906 1905.03125 C 941.664062 1693.679688 737.238281 1511.171875 630.527344 1555.171875 C 585.589844 1573.710938 560.832031 1631.578125 554.839844 1732.089844 C 546.539062 1871.351562 503.222656 1968.03125 422.414062 2027.660156 C 240.847656 2161.628906 -101.777344 2077.820312 -433.125 1996.769531 C -759.722656 1916.878906 -1068.210938 1841.410156 -1233.21875 1957.5 C -1299.71875 2004.269531 -1337.460938 2078.390625 -1348.589844 2184.070312 L -1352.320312 2183.679688 C -1341.070312 2076.851562 -1302.820312 2001.871094 -1235.378906 1954.429688 C -1068.96875 1837.371094 -759.683594 1913.019531 -432.230469 1993.128906 C -101.722656 2073.96875 240.039062 2157.558594 420.1875 2024.640625 C 500.046875 1965.710938 542.867188 1869.949219 551.09375 1731.859375 C 557.183594 1629.769531 582.695312 1570.851562 629.097656 1551.699219 C 737.984375 1506.828125 943.222656 1690.039062 1180.871094 1902.230469 C 1490.191406 2178.398438 1840.800781 2491.390625 2073.890625 2383.46875 C 2162.808594 2342.300781 2229.589844 2239.820312 2272.398438 2078.859375 C 2320.070312 1899.589844 2340 1640.660156 2331.628906 1309.28125 C 2318.320312 781.929688 2409.648438 466.648438 2610.851562 345.410156 C 2907.339844 166.75 3395 440.410156 3866.570312 705.078125 C 4299.96875 948.320312 4709.339844 1178.070312 4950.191406 1053.53125 C 5065.460938 993.921875 5132.738281 858.160156 5155.871094 638.46875 L 5159.601562 638.859375 C 5136.328125 859.898438 5068.390625 996.628906 4951.910156 1056.859375 C 4709.300781 1182.308594 4299.050781 952.101562 3864.738281 708.351562 C 3394.101562 444.210938 2907.460938 171.078125 2612.78125 348.621094 C 2412.839844 469.101562 2322.101562 783.308594 2335.378906 1309.191406 C 2351.460938 1945.941406 2266.441406 2298.449219 2075.460938 2386.871094 C 2042.660156 2402.058594 2007.570312 2409.039062 1970.679688 2409.039062 "/>
<path fill-rule="nonzero" fill="rgb(48.149109%, 59.028625%, 83.395386%)" fill-opacity="1" d="M 1966.398438 2417.167969 C 1734.890625 2417.167969 1435.621094 2159.96875 1166.949219 1929.058594 C 927.257812 1723.070312 720.25 1545.128906 611.375 1590.558594 C 565.914062 1609.519531 540.429688 1666.488281 533.460938 1764.738281 C 523.914062 1899.480469 480.234375 1993.929688 399.929688 2053.480469 C 214.839844 2190.730469 -135.769531 2110.910156 -474.832031 2033.699219 C -808.816406 1957.660156 -1124.28125 1885.839844 -1292.53125 2004.589844 C -1358.679688 2051.28125 -1396.710938 2123.699219 -1408.800781 2225.96875 L -1412.53125 2225.53125 C -1400.300781 2122.140625 -1361.761719 2048.859375 -1294.691406 2001.53125 C -1125.078125 1881.808594 -808.824219 1953.808594 -474 2030.050781 C -135.761719 2107.058594 213.996094 2186.691406 397.695312 2050.46875 C 477.070312 1991.609375 520.253906 1898.058594 529.722656 1764.480469 C 536.796875 1664.671875 563.035156 1606.648438 609.933594 1587.101562 C 720.921875 1540.789062 928.761719 1719.410156 1169.390625 1926.21875 C 1483.21875 2195.929688 1838.921875 2501.648438 2077.328125 2389.699219 C 2167.371094 2347.429688 2235.621094 2245.628906 2280.179688 2087.128906 C 2329.78125 1910.710938 2352.128906 1657.089844 2346.609375 1333.300781 C 2337.871094 820 2431.828125 510.519531 2633.839844 387.179688 C 2936.800781 202.199219 3434.039062 468.398438 3914.921875 725.839844 C 4356.03125 962 4772.660156 1185.039062 5018.609375 1056.75 C 5134.53125 996.269531 5203.179688 862.828125 5228.460938 648.800781 L 5232.179688 649.238281 C 5206.738281 864.601562 5137.449219 998.980469 5020.339844 1060.070312 C 4772.640625 1189.28125 4355.148438 965.78125 3913.148438 729.148438 C 3433.210938 472.210938 2936.921875 206.519531 2635.789062 390.378906 C 2435.011719 512.96875 2341.648438 821.378906 2350.359375 1333.230469 C 2360.960938 1955.691406 2272.179688 2302.371094 2078.929688 2393.101562 C 2043.738281 2409.621094 2006.058594 2417.167969 1966.398438 2417.167969 "/>
<path fill-rule="nonzero" fill="rgb(55.557251%, 59.892273%, 83.473206%)" fill-opacity="1" d="M 1961.761719 2425.21875 C 1726.488281 2425.238281 1425.519531 2176.390625 1155.070312 1952.808594 C 912.285156 1752.101562 702.628906 1578.769531 591.507812 1625.570312 C 545.535156 1644.949219 519.328125 1701.050781 511.398438 1797.078125 C 500.640625 1927.398438 456.632812 2019.628906 376.855469 2079.03125 C 299.589844 2136.570312 193.738281 2157.828125 71.886719 2157.839844 C -103.78125 2157.839844 -312.753906 2113.679688 -517.652344 2070.390625 C -859.234375 1998.210938 -1181.871094 1930.03125 -1353.378906 2051.429688 C -1419.171875 2097.988281 -1457.480469 2168.738281 -1470.488281 2267.710938 L -1474.199219 2267.21875 C -1461.050781 2167.160156 -1422.238281 2095.570312 -1355.550781 2048.371094 C -1182.699219 1926.03125 -859.277344 1994.359375 -516.875 2066.71875 C -170.671875 2139.871094 187.316406 2215.511719 374.617188 2076.03125 C 453.476562 2017.300781 497 1925.949219 507.660156 1796.769531 C 515.71875 1699.210938 542.671875 1642.089844 590.054688 1622.121094 C 703.238281 1574.398438 913.730469 1748.429688 1157.460938 1949.921875 C 1476.019531 2213.28125 1837.109375 2511.800781 2080.941406 2395.710938 C 2172.078125 2352.339844 2241.761719 2251.191406 2288.078125 2095.078125 C 2339.570312 1921.488281 2364.320312 1673.089844 2361.640625 1356.78125 C 2357.398438 857.308594 2453.890625 553.570312 2656.621094 428.21875 C 2966.199219 236.800781 3473.441406 495.578125 3963.980469 745.828125 C 4413.058594 974.929688 4837.230469 1191.320312 5088.398438 1059.230469 C 5204.929688 997.941406 5274.910156 866.808594 5302.308594 658.328125 L 5306.03125 658.820312 C 5278.449219 868.589844 5207.828125 1000.660156 5090.140625 1062.550781 C 4837.289062 1195.550781 4412.25 978.730469 3962.28125 749.171875 C 3472.660156 499.390625 2966.359375 241.109375 2658.589844 431.410156 C 2457.070312 556.019531 2361.160156 858.691406 2365.390625 1356.75 C 2370.550781 1965.101562 2278.03125 2306.058594 2082.550781 2399.101562 C 2044.828125 2417.050781 2004.359375 2425.210938 1961.761719 2425.21875 "/>
<path fill-rule="nonzero" fill="rgb(49.372864%, 69.2276%, 79.579163%)" fill-opacity="1" d="M 1956.789062 2433.140625 C 1717.78125 2433.160156 1415.058594 2192.578125 1142.800781 1976.230469 C 896.785156 1780.738281 684.335938 1611.910156 570.9375 1660.160156 C 524.464844 1679.949219 497.554688 1735.191406 488.671875 1829.03125 C 476.746094 1955.050781 432.4375 2045.078125 353.210938 2104.289062 C 160.917969 2247.988281 -206.355469 2176.210938 -561.535156 2106.800781 C -910.914062 2038.53125 -1240.929688 1974.039062 -1415.800781 2098.019531 C -1481.21875 2144.410156 -1519.78125 2213.511719 -1533.691406 2309.261719 L -1537.398438 2308.71875 C -1523.339844 2211.898438 -1484.269531 2141.980469 -1417.96875 2094.96875 C -1241.789062 1970.050781 -911.011719 2034.691406 -560.8125 2103.121094 C -206.429688 2172.378906 160.007812 2243.980469 350.964844 2101.289062 C 429.296875 2042.75 473.117188 1953.578125 484.9375 1828.679688 C 493.964844 1733.339844 521.613281 1677.089844 569.46875 1656.710938 C 684.902344 1607.570312 898.179688 1777.058594 1145.140625 1973.300781 C 1468.660156 2230.378906 1835.339844 2521.789062 2084.808594 2401.429688 C 2177.011719 2356.949219 2248.121094 2256.429688 2296.148438 2102.679688 C 2349.511719 1931.859375 2376.621094 1688.609375 2376.730469 1379.679688 C 2376.898438 893.828125 2475.828125 595.789062 2679.171875 468.539062 C 2995.511719 270.558594 3513.160156 521.921875 4013.738281 765 C 4471.089844 987.089844 4903.050781 1196.839844 5159.578125 1060.929688 C 5276.691406 998.878906 5347.949219 870.011719 5377.429688 666.980469 L 5381.148438 667.511719 C 5351.46875 871.820312 5279.570312 1001.589844 5161.328125 1064.238281 C 4903.140625 1201.058594 4470.328125 990.878906 4012.109375 768.371094 C 3512.429688 525.730469 2995.75 274.828125 2681.148438 471.71875 C 2479 598.230469 2380.648438 895.230469 2380.480469 1379.679688 C 2380.269531 1974.128906 2284.089844 2309.460938 2086.441406 2404.808594 C 2046.011719 2424.308594 2002.558594 2433.140625 1956.789062 2433.140625 "/>
<path fill-rule="nonzero" fill="rgb(75.204468%, 80.073547%, 92.547607%)" fill-opacity="1" d="M 1951.441406 2441 C 1708.671875 2441.019531 1404.191406 2208.578125 1130.078125 1999.351562 C 880.695312 1808.988281 665.308594 1644.589844 549.648438 1694.339844 C 502.6875 1714.53125 475.085938 1768.910156 465.265625 1860.601562 C 452.203125 1982.441406 407.609375 2070.320312 328.9375 2129.261719 C 242.675781 2193.878906 121.523438 2216.960938 -18.039062 2216.960938 C -195.625 2216.96875 -403.039062 2179.628906 -606.625 2142.980469 C -964 2078.640625 -1301.558594 2017.878906 -1479.808594 2144.398438 C -1544.851562 2190.558594 -1583.640625 2258.03125 -1598.398438 2350.660156 L -1602.109375 2350.070312 C -1587.171875 2256.390625 -1547.878906 2188.121094 -1481.980469 2141.339844 C -1302.449219 2013.910156 -964.125 2074.820312 -605.960938 2139.28125 C -243.164062 2204.601562 131.976562 2272.121094 326.691406 2126.261719 C 404.484375 2067.980469 448.59375 1980.949219 461.535156 1860.199219 C 471.515625 1767.050781 499.851562 1711.660156 548.164062 1690.890625 C 665.863281 1640.269531 882.039062 1805.300781 1132.359375 1996.359375 C 1461.078125 2247.28125 1833.660156 2531.699219 2088.890625 2406.917969 C 2182.148438 2361.328125 2254.648438 2261.441406 2304.390625 2110 C 2359.578125 1941.898438 2389.03125 1703.71875 2391.910156 1402.058594 C 2396.398438 929.601562 2497.679688 637.210938 2701.519531 508.160156 C 3024.820312 303.480469 3553.238281 547.460938 4064.25 783.398438 C 4530.121094 998.488281 4970.148438 1201.660156 5232.160156 1061.890625 C 5349.808594 999.128906 5422.320312 872.519531 5453.851562 674.808594 L 5457.550781 675.398438 C 5425.820312 874.351562 5352.679688 1001.851562 5233.929688 1065.199219 C 4970.28125 1205.851562 4529.429688 1002.300781 4062.679688 786.800781 C 3552.578125 551.289062 3025.109375 307.761719 2703.53125 511.328125 C 2500.839844 639.640625 2400.140625 931.011719 2395.660156 1402.101562 C 2390.121094 1982.851562 2290.320312 2312.628906 2090.539062 2410.289062 C 2047.230469 2431.460938 2000.578125 2440.988281 1951.441406 2441 "/>
<path fill-rule="nonzero" fill="rgb(64.71405%, 66.697693%, 83.572388%)" fill-opacity="1" d="M 1945.699219 2448.761719 C 1699.179688 2448.78125 1392.898438 2224.378906 1116.929688 2022.210938 C 864.019531 1836.929688 645.597656 1676.921875 527.539062 1728.160156 C 480.105469 1748.75 451.816406 1802.300781 441.058594 1891.871094 C 426.917969 2009.640625 382.082031 2095.390625 303.988281 2154 C 104.214844 2303.929688 -280.632812 2240.371094 -652.8125 2178.910156 C -887.324219 2140.179688 -1129.820312 2100.121094 -1315.039062 2117.238281 C -1524.328125 2136.558594 -1635.441406 2223.828125 -1664.710938 2391.898438 L -1668.410156 2391.25 C -1652.769531 2301.460938 -1613.839844 2235.21875 -1549.398438 2188.761719 C -1491.988281 2147.359375 -1415.441406 2122.738281 -1315.390625 2113.5 C -1129.671875 2096.359375 -886.949219 2136.449219 -652.203125 2175.210938 C -280.796875 2236.539062 103.242188 2299.960938 301.738281 2151 C 378.964844 2093.03125 423.320312 2008.128906 437.339844 1891.421875 C 448.265625 1800.421875 477.285156 1745.890625 526.050781 1724.71875 C 646.074219 1672.628906 865.300781 1833.21875 1119.140625 2019.179688 C 1453.308594 2263.988281 1832.078125 2541.449219 2093.230469 2412.140625 C 2187.511719 2365.460938 2261.378906 2266.148438 2312.789062 2116.988281 C 2369.789062 1951.578125 2401.53125 1718.410156 2407.128906 1423.921875 C 2415.871094 964.628906 2519.410156 677.820312 2723.660156 547.109375 C 3054.109375 335.628906 3593.699219 572.230469 4115.539062 801.019531 C 4590.21875 1009.140625 5038.601562 1205.730469 5306.171875 1062.101562 C 5424.308594 998.691406 5498.039062 874.289062 5531.550781 681.808594 L 5535.25 682.460938 C 5501.519531 876.148438 5427.171875 1001.410156 5307.949219 1065.398438 C 5038.75 1209.898438 4589.578125 1012.949219 4114.03125 804.460938 C 3593.109375 576.058594 3054.429688 339.890625 2725.679688 550.261719 C 2522.558594 680.25 2419.589844 966.050781 2410.878906 1423.988281 C 2405.269531 1718.859375 2373.460938 1952.429688 2316.328125 2118.210938 C 2264.589844 2268.339844 2190.089844 2368.371094 2094.890625 2415.5 C 2048.5 2438.46875 1998.449219 2448.761719 1945.699219 2448.761719 "/>
<path fill-rule="nonzero" fill="rgb(40.77301%, 52.282715%, 79.933167%)" fill-opacity="1" d="M 1939.53125 2456.441406 C 1689.238281 2456.460938 1381.171875 2239.980469 1103.289062 2044.75 C 846.742188 1864.488281 625.167969 1708.839844 504.714844 1761.589844 C 456.824219 1782.570312 427.867188 1835.289062 416.195312 1922.761719 C 401 2036.609375 355.933594 2120.261719 278.410156 2178.488281 C 74.796875 2331.441406 -319.175781 2272.070312 -700.167969 2214.648438 C -938.628906 2178.710938 -1185.210938 2141.53125 -1373.96875 2160.019531 C -1587.289062 2180.898438 -1701.238281 2267.648438 -1732.558594 2433.050781 L -1736.25 2432.359375 C -1719.511719 2343.980469 -1679.28125 2278.550781 -1613.25 2232.320312 C -1554.429688 2191.128906 -1476.28125 2166.261719 -1374.328125 2156.289062 C -1185.101562 2137.78125 -938.292969 2174.960938 -699.609375 2210.929688 C -319.371094 2268.238281 73.804688 2327.5 276.160156 2175.488281 C 352.835938 2117.890625 397.421875 2035.070312 412.480469 1922.261719 C 424.339844 1833.390625 454.019531 1779.710938 503.210938 1758.160156 C 625.621094 1704.53125 847.972656 1860.78125 1105.449219 2041.679688 C 1445.308594 2280.46875 1830.5 2551.121094 2097.820312 2417.101562 C 2193.109375 2369.320312 2268.328125 2270.601562 2321.390625 2123.671875 C 2380.171875 1960.910156 2414.179688 1732.660156 2422.46875 1445.238281 C 2435.351562 998.871094 2541.050781 717.601562 2745.621094 585.339844 C 3083.328125 366.988281 3634.53125 596.199219 4167.570312 817.859375 C 4651.359375 1019.03125 5108.328125 1209.039062 5381.648438 1061.570312 C 5500.28125 997.570312 5575.179688 875.371094 5610.660156 688 L 5614.339844 688.699219 C 5578.648438 877.25 5503.109375 1000.300781 5383.429688 1064.871094 C 5108.53125 1213.191406 4650.769531 1022.851562 4166.128906 821.320312 C 3633.980469 600.039062 3083.730469 371.230469 2747.660156 588.488281 C 2544.199219 720.03125 2439.058594 1000.308594 2426.21875 1445.351562 C 2417.921875 1733.160156 2383.828125 1961.808594 2324.910156 2124.949219 C 2271.511719 2272.808594 2195.671875 2372.230469 2099.5 2420.449219 C 2049.820312 2445.351562 1996.140625 2456.429688 1939.53125 2456.441406 "/>
<path fill-rule="nonzero" fill="rgb(37.04071%, 71.060181%, 91.064453%)" fill-opacity="1" d="M -1802.019531 2474.039062 L -1805.699219 2473.289062 C -1787.859375 2386.300781 -1746.308594 2321.648438 -1678.671875 2275.648438 C -1618.421875 2234.671875 -1538.640625 2209.53125 -1434.761719 2198.820312 C -1241.910156 2178.941406 -990.9375 2213.25 -748.230469 2246.460938 C -222.046875 2318.421875 322.046875 2392.851562 386.835938 1952.828125 C 399.625 1866.03125 429.960938 1813.179688 479.578125 1791.261719 C 604.40625 1736.089844 830.058594 1888.03125 1091.328125 2063.941406 C 1437.128906 2296.75 1829.058594 2560.648438 2102.671875 2421.789062 C 2198.929688 2372.941406 2275.46875 2274.789062 2330.171875 2130.070312 C 2390.691406 1969.910156 2426.929688 1746.511719 2437.878906 1466.058594 C 2454.820312 1032.398438 2562.601562 756.609375 2767.378906 622.941406 C 3112.558594 397.628906 3675.75 619.449219 4220.410156 833.960938 C 4713.578125 1028.191406 5179.410156 1211.660156 5458.621094 1060.320312 C 5577.699219 995.78125 5653.761719 875.738281 5691.160156 693.359375 L 5694.828125 694.109375 C 5657.199219 877.648438 5580.519531 998.519531 5460.398438 1063.621094 C 5179.648438 1215.78125 4713.039062 1032.011719 4219.03125 837.449219 C 3675.261719 623.28125 3112.988281 401.839844 2769.429688 626.078125 C 2565.738281 759.039062 2458.519531 1033.851562 2441.628906 1466.210938 C 2430.660156 1747.058594 2394.339844 1970.859375 2333.671875 2131.390625 C 2278.640625 2277.019531 2201.488281 2375.851562 2104.371094 2425.128906 C 2051.199219 2452.121094 1993.640625 2464.039062 1932.921875 2464.039062 C 1678.890625 2464.058594 1369.011719 2255.410156 1089.238281 2067.050781 C 828.890625 1891.761719 604.046875 1740.390625 481.09375 1794.691406 C 432.75 1816.050781 403.132812 1867.949219 390.546875 1953.371094 C 325.21875 2397.058594 -220.742188 2322.378906 -748.738281 2250.171875 C -991.234375 2217 -1242 2182.699219 -1434.378906 2202.550781 C -1651.820312 2224.980469 -1768.648438 2311.25 -1802.019531 2474.039062 "/>
<path fill-rule="nonzero" fill="rgb(73.596191%, 78.81012%, 92.045593%)" fill-opacity="1" d="M -1873.128906 2514.96875 L -1876.789062 2514.160156 C -1857.851562 2428.53125 -1814.960938 2364.640625 -1745.679688 2318.839844 C -1683.96875 2278.039062 -1602.519531 2252.640625 -1496.671875 2241.179688 C -1300.140625 2219.890625 -1044.898438 2251.378906 -798.0625 2281.808594 C -262.871094 2347.789062 290.554688 2416.03125 360.492188 1983.070312 C 374.1875 1898.320312 405.164062 1846.289062 455.1875 1824.011719 C 582.519531 1767.289062 811.550781 1914.941406 1076.761719 2085.910156 C 1428.761719 2312.820312 1827.71875 2570 2107.820312 2426.199219 C 2205.039062 2376.289062 2282.878906 2278.699219 2339.171875 2136.148438 C 2401.398438 1978.570312 2439.828125 1759.941406 2453.398438 1486.351562 C 2474.300781 1065.148438 2584.058594 794.800781 2788.980469 659.859375 C 3141.808594 427.53125 3717.410156 641.929688 4274.058594 849.269531 C 4776.910156 1036.570312 5251.859375 1213.488281 5537.089844 1058.308594 C 5656.601562 993.289062 5733.789062 875.398438 5773.058594 697.890625 L 5776.730469 698.699219 C 5737.210938 877.328125 5659.410156 996.039062 5538.878906 1061.609375 C 5252.148438 1217.601562 4776.410156 1040.390625 4272.761719 852.789062 C 3716.980469 645.769531 3142.289062 431.710938 2791.039062 662.988281 C 2587.191406 797.230469 2477.980469 1066.609375 2457.140625 1486.539062 C 2443.550781 1760.539062 2405.03125 1979.558594 2342.660156 2137.53125 C 2286.019531 2280.949219 2207.578125 2379.191406 2109.539062 2429.53125 C 2052.660156 2458.730469 1990.960938 2471.558594 1925.851562 2471.558594 C 1668.089844 2471.582031 1356.421875 2270.648438 1074.730469 2089.058594 C 810.4375 1918.691406 582.179688 1771.53125 456.714844 1827.441406 C 407.9375 1849.160156 377.671875 1900.261719 364.191406 1983.671875 C 319.472656 2260.511719 79.71875 2334.25 -226.628906 2334.25 C -403.3125 2334.261719 -602.109375 2309.75 -798.519531 2285.53125 C -1045.148438 2255.121094 -1300.171875 2223.671875 -1496.269531 2244.910156 C -1717.921875 2268.898438 -1837.679688 2354.71875 -1873.128906 2514.96875 "/>
<path fill-rule="nonzero" fill="rgb(45.898438%, 82.35321%, 91.474915%)" fill-opacity="1" d="M -1945.890625 2555.832031 L -1949.539062 2554.960938 C -1929.480469 2470.660156 -1885.238281 2407.5 -1814.289062 2361.878906 C -1751.109375 2321.261719 -1667.960938 2295.570312 -1560.089844 2283.359375 C -1359.800781 2260.691406 -1100.179688 2289.308594 -849.109375 2316.988281 C -304.683594 2377.011719 258.273438 2439.082031 333.398438 2013.03125 C 347.988281 1930.289062 379.597656 1879.070312 430.015625 1856.441406 C 559.890625 1798.160156 792.441406 1941.589844 1061.71875 2107.648438 C 1420.179688 2328.710938 1826.460938 2579.261719 2113.238281 2430.371094 C 2211.378906 2379.421875 2290.480469 2282.398438 2348.351562 2141.988281 C 2412.25 1986.949219 2452.839844 1773.039062 2468.988281 1506.210938 C 2493.75 1097.199219 2605.421875 832.230469 2810.390625 696.160156 C 3171.050781 456.71875 3759.5 663.699219 4328.589844 863.859375 C 4841.359375 1044.21875 5325.699219 1214.601562 5617.101562 1055.601562 C 5737.019531 990.171875 5815.300781 874.378906 5856.398438 701.628906 L 5860.050781 702.5 C 5818.679688 876.339844 5739.800781 992.921875 5618.890625 1058.890625 C 5326.050781 1218.679688 4840.941406 1048.050781 4327.339844 867.398438 C 3759.128906 667.539062 3171.570312 460.878906 2812.460938 699.28125 C 2608.539062 834.660156 2497.421875 1098.679688 2472.730469 1506.441406 C 2456.550781 1773.691406 2415.871094 1988 2351.820312 2143.421875 C 2293.601562 2284.671875 2213.921875 2382.328125 2114.96875 2433.699219 C 1826.289062 2583.550781 1419.058594 2332.421875 1059.761719 2110.839844 C 791.382812 1945.339844 559.613281 1802.390625 431.550781 1859.871094 C 382.351562 1881.949219 351.453125 1932.261719 337.089844 2013.691406 C 261.355469 2443.199219 -303.375 2380.929688 -849.519531 2320.71875 C -1100.390625 2293.070312 -1359.800781 2264.460938 -1559.671875 2287.089844 C -1785.621094 2312.660156 -1908.351562 2398.058594 -1945.890625 2555.832031 "/>
<path fill-rule="nonzero" fill="rgb(57.936096%, 67.09137%, 87.161255%)" fill-opacity="1" d="M -2020.398438 2596.648438 L -2024.039062 2595.71875 C -2002.851562 2512.699219 -1957.230469 2450.25 -1884.578125 2404.789062 C -1819.890625 2364.308594 -1735 2338.328125 -1625.058594 2325.359375 C -1420.910156 2301.289062 -1156.800781 2327.078125 -901.386719 2352.011719 C -347.519531 2406.082031 225.1875 2462 305.53125 2042.738281 C 321.011719 1961.949219 353.234375 1911.53125 404.046875 1888.558594 C 536.535156 1828.691406 772.738281 1967.929688 1046.238281 2129.128906 C 1411.410156 2344.371094 1825.300781 2588.339844 2118.96875 2434.230469 C 2218.011719 2382.269531 2298.339844 2285.800781 2357.761719 2147.511719 C 2423.300781 1994.980469 2466 1785.710938 2484.691406 1525.53125 C 2513.21875 1128.488281 2626.710938 868.859375 2831.640625 731.808594 C 3200.320312 485.261719 3802.039062 684.769531 4383.949219 877.71875 C 4906.980469 1051.140625 5400.988281 1214.949219 5698.671875 1052.179688 C 5819 986.378906 5898.339844 872.671875 5941.238281 704.550781 L 5944.878906 705.46875 C 5901.699219 874.660156 5821.761719 989.148438 5700.46875 1055.46875 C 5401.378906 1219.019531 4906.589844 1054.96875 4382.769531 881.269531 C 3801.710938 688.609375 3200.878906 489.378906 2833.71875 734.929688 C 2629.820312 871.289062 2516.878906 1129.988281 2488.429688 1525.800781 C 2469.710938 1786.398438 2426.910156 1996.078125 2361.210938 2148.988281 C 2301.441406 2288.089844 2220.53125 2385.179688 2120.71875 2437.550781 C 2055.730469 2471.648438 1984.910156 2486.429688 1910.171875 2486.441406 C 1645.050781 2486.46875 1329.871094 2300.660156 1044.339844 2132.371094 C 771.734375 1971.691406 536.304688 1832.929688 405.59375 1891.980469 C 355.972656 1914.398438 324.449219 1963.949219 309.214844 2043.441406 C 228.226562 2466.070312 -346.21875 2409.980469 -901.75 2355.738281 C -1156.96875 2330.828125 -1420.871094 2305.058594 -1624.621094 2329.089844 C -1854.980469 2356.261719 -1980.738281 2441.28125 -2020.398438 2596.648438 "/>
<path fill-rule="nonzero" fill="rgb(49.29657%, 60.539246%, 84.165955%)" fill-opacity="1" d="M -2096.550781 2637.390625 L -2100.171875 2636.398438 C -2077.851562 2554.648438 -2030.851562 2492.878906 -1956.480469 2447.570312 C -1890.261719 2407.21875 -1803.601562 2380.941406 -1691.558594 2367.210938 C -1483.488281 2341.71875 -1214.800781 2364.691406 -954.953125 2386.898438 C -391.425781 2435.050781 191.292969 2484.851562 276.863281 2072.140625 C 293.21875 1993.300781 326.046875 1943.660156 377.226562 1920.390625 C 512.363281 1858.929688 752.351562 1994.011719 1030.230469 2150.398438 C 1402.410156 2359.878906 1824.238281 2597.300781 2125.019531 2437.871094 C 2224.921875 2384.910156 2306.480469 2289.011719 2367.410156 2152.808594 C 2434.550781 2002.761719 2479.339844 1798.070312 2500.53125 1544.421875 C 2532.738281 1159.058594 2647.960938 904.699219 2852.789062 766.808594 C 3229.679688 513.101562 3845.078125 705.121094 4440.230469 890.820312 C 4973.769531 1057.308594 5477.730469 1214.550781 5781.851562 1048.050781 C 5902.558594 981.949219 5982.960938 870.289062 6027.628906 706.660156 L 6031.238281 707.648438 C 5986.289062 872.308594 5905.308594 984.730469 5783.648438 1051.339844 C 5478.128906 1218.621094 4973.429688 1061.121094 4439.109375 894.398438 C 3844.820312 708.96875 3230.289062 517.230469 2854.890625 769.921875 C 2651.058594 907.128906 2536.371094 1160.578125 2504.269531 1544.738281 C 2483.039062 1798.800781 2438.140625 2003.898438 2370.828125 2154.339844 C 2309.550781 2291.320312 2227.441406 2387.828125 2126.78125 2441.179688 C 1824.199219 2601.539062 1401.410156 2363.609375 1028.390625 2153.671875 C 751.402344 1997.769531 512.1875 1863.148438 378.78125 1923.800781 C 328.765625 1946.550781 296.628906 1995.320312 280.535156 2072.898438 C 194.296875 2488.871094 -390.109375 2438.929688 -955.273438 2390.628906 C -1214.921875 2368.441406 -1483.410156 2345.488281 -1691.109375 2370.941406 C -1925.949219 2399.699219 -2054.78125 2484.371094 -2096.550781 2637.390625 "/>
<path fill-rule="nonzero" fill="rgb(45.898438%, 82.35321%, 91.474915%)" fill-opacity="1" d="M -2174.550781 2678.121094 L -2178.148438 2677.078125 C -2154.691406 2596.539062 -2106.269531 2535.429688 -2030.140625 2490.25 C -1962.351562 2450.019531 -1873.890625 2423.417969 -1759.691406 2408.917969 C -1547.578125 2382 -1274.191406 2402.148438 -1009.789062 2421.628906 C -436.367188 2463.871094 156.574219 2507.570312 247.445312 2101.300781 C 264.65625 2024.359375 298.078125 1975.488281 349.628906 1951.910156 C 487.476562 1888.839844 731.371094 2019.808594 1013.769531 2171.421875 C 1393.21875 2375.148438 1823.300781 2606.050781 2131.378906 2441.199219 C 2232.128906 2387.289062 2314.859375 2291.941406 2377.289062 2157.800781 C 2445.988281 2010.191406 2492.808594 1810 2516.46875 1562.78125 C 2552.25 1188.851562 2669.128906 939.710938 2873.789062 801.140625 C 3259.089844 540.269531 3888.621094 724.761719 4497.410156 903.160156 C 5041.769531 1062.679688 5555.929688 1213.351562 5866.640625 1043.171875 C 5987.738281 976.828125 6069.160156 867.179688 6115.550781 707.941406 L 6119.160156 708.988281 C 6072.46875 869.230469 5990.460938 979.621094 5868.441406 1046.460938 C 5556.371094 1217.390625 5041.480469 1066.511719 4496.359375 906.761719 C 3888.390625 728.601562 3259.71875 544.359375 2875.890625 804.25 C 2672.210938 942.148438 2555.871094 1190.390625 2520.199219 1563.140625 C 2496.5 1810.78125 2449.570312 2011.390625 2380.691406 2159.390625 C 2317.910156 2294.269531 2234.628906 2390.199219 2133.148438 2444.5 C 2059.019531 2484.167969 1977.890625 2501.109375 1892.238281 2501.121094 C 1619.898438 2501.128906 1301.289062 2330.050781 1012 2174.730469 C 730.476562 2023.578125 487.34375 1893.039062 351.1875 1955.328125 C 300.78125 1978.390625 268.042969 2026.398438 251.105469 2102.121094 C 159.53125 2511.539062 -435.058594 2467.730469 -1010.070312 2425.371094 C -1274.269531 2405.910156 -1547.480469 2385.769531 -1759.210938 2412.640625 C -1998.648438 2443.019531 -2130.628906 2527.378906 -2174.550781 2678.121094 "/>
<path fill-rule="nonzero" fill="rgb(47.462463%, 58.590698%, 83.190918%)" fill-opacity="1" d="M -2254.269531 2718.851562 L -2257.851562 2717.738281 C -2233.230469 2638.398438 -2183.390625 2577.917969 -2105.46875 2532.851562 C -2036.101562 2492.71875 -1945.789062 2465.789062 -1829.390625 2450.53125 C -1613.191406 2422.179688 -1334.988281 2439.511719 -1065.949219 2456.269531 C -482.402344 2492.609375 121.027344 2530.21875 217.210938 2130.179688 C 235.269531 2055.101562 269.273438 2007 321.171875 1983.140625 C 461.8125 1918.480469 709.726562 2045.339844 996.792969 2192.210938 C 1383.800781 2390.21875 1822.441406 2614.671875 2138.070312 2444.261719 C 2239.628906 2389.441406 2323.53125 2294.660156 2387.421875 2162.570312 C 2457.660156 2017.378906 2506.488281 1821.621094 2532.558594 1580.71875 C 2571.820312 1217.949219 2690.269531 973.988281 2894.699219 834.890625 C 3288.601562 566.871094 3932.660156 743.75 4555.53125 914.808594 C 5306.878906 1121.160156 6016.570312 1316.050781 6205.109375 708.421875 L 6208.691406 709.519531 C 6019.058594 1320.628906 5307.679688 1125.261719 4554.53125 918.421875 C 3932.488281 747.589844 3289.269531 570.941406 2896.808594 837.988281 C 2693.351562 976.441406 2575.421875 1219.519531 2536.289062 1581.121094 C 2510.171875 1822.449219 2461.21875 2018.621094 2390.800781 2164.199219 C 2326.550781 2297.011719 2242.121094 2392.351562 2139.851562 2447.570312 C 2060.71875 2490.28125 1973.96875 2508.371094 1882.339844 2508.371094 C 1606.480469 2508.390625 1286.21875 2344.511719 995.082031 2195.550781 C 708.882812 2049.121094 461.71875 1922.660156 322.738281 1986.550781 C 271.953125 2009.898438 238.628906 2057.171875 220.855469 2131.058594 C 152.046875 2417.238281 -172.964844 2481.25 -565.03125 2481.261719 C -725.199219 2481.261719 -896.480469 2470.582031 -1066.179688 2460.011719 C -1335.050781 2443.261719 -1613.058594 2425.929688 -1828.910156 2454.25 C -2073.019531 2486.261719 -2208.179688 2570.339844 -2254.269531 2718.851562 "/>
<path fill-rule="nonzero" fill="rgb(68.788147%, 70.466614%, 85.301208%)" fill-opacity="1" d="M -2335.828125 2759.589844 L -2339.390625 2758.421875 C -2313.609375 2680.238281 -2262.320312 2620.371094 -2182.589844 2575.390625 C -2111.601562 2535.339844 -2019.410156 2508.082031 -1900.761719 2492.039062 C -1680.351562 2462.238281 -1397.230469 2476.761719 -1123.421875 2490.808594 C -529.5 2521.28125 84.640625 2552.800781 186.179688 2158.878906 C 205.070312 2085.609375 239.652344 2038.261719 291.898438 2014.128906 C 435.367188 1947.859375 687.460938 2070.648438 979.351562 2212.808594 C 1374.199219 2405.109375 1821.730469 2623.101562 2145.078125 2447.070312 C 2361.769531 2329.121094 2493.808594 2051.441406 2548.75 1598.160156 C 2591.390625 1246.308594 2711.351562 1007.460938 2915.5 867.980469 C 3318.171875 592.839844 3977.21875 762.070312 4614.558594 925.730469 C 5377.851562 1121.730469 6098.789062 1306.859375 6296.25 708.070312 L 6299.808594 709.25 C 6101.238281 1311.359375 5378.660156 1125.808594 4613.628906 929.359375 C 3977.101562 765.910156 3318.890625 596.890625 2917.609375 871.070312 C 2714.421875 1009.910156 2594.96875 1247.898438 2552.46875 1598.609375 C 2523.96875 1833.75 2473.058594 2025.570312 2401.140625 2168.761719 C 2335.460938 2299.53125 2249.921875 2394.28125 2146.878906 2450.359375 C 2062.480469 2496.308594 1969.710938 2515.589844 1871.761719 2515.601562 C 1592.449219 2515.621094 1270.640625 2358.851562 977.710938 2216.179688 C 686.683594 2074.441406 435.347656 1952.03125 293.472656 2017.539062 C 242.3125 2041.160156 208.402344 2087.699219 189.8125 2159.820312 C 87.507812 2556.699219 -528.183594 2525.101562 -1123.609375 2494.558594 C -1397.25 2480.511719 -1680.191406 2466 -1900.261719 2495.75 C -2149.171875 2529.410156 -2287.570312 2613.238281 -2335.828125 2759.589844 "/>
<path fill-rule="nonzero" fill="rgb(34.738159%, 61.5448%, 85.716248%)" fill-opacity="1" d="M -2419.289062 2800.339844 L -2422.828125 2799.101562 C -2395.871094 2722.058594 -2343.109375 2662.78125 -2261.519531 2617.878906 C -2188.890625 2577.898438 -2094.78125 2550.28125 -1973.828125 2533.449219 C -1749.140625 2502.191406 -1460.980469 2513.917969 -1182.300781 2525.261719 C -577.769531 2549.851562 47.347656 2575.300781 154.304688 2187.308594 C 174.015625 2115.808594 209.160156 2069.210938 261.746094 2044.839844 C 408.140625 1976.988281 664.519531 2095.710938 961.375 2233.199219 C 1364.351562 2419.820312 1821.070312 2631.328125 2152.441406 2449.621094 C 2370.640625 2329.949219 2505.609375 2057.011719 2565.089844 1615.191406 C 2611.019531 1273.941406 2732.429688 1040.128906 2936.25 900.398438 C 3347.929688 618.171875 4022.390625 779.699219 4674.648438 935.898438 C 5450.140625 1121.609375 6182.621094 1297.019531 6389.101562 706.898438 L 6392.640625 708.140625 C 6185.039062 1301.46875 5450.960938 1125.671875 4673.769531 939.539062 C 4022.308594 783.53125 3348.679688 622.210938 2938.371094 903.488281 C 2735.46875 1042.589844 2614.589844 1275.550781 2568.800781 1615.691406 C 2537.96875 1844.738281 2485.128906 2032.28125 2411.75 2173.101562 C 2344.660156 2301.851562 2258.019531 2395.988281 2154.238281 2452.910156 C 2064.261719 2502.261719 1965.121094 2522.800781 1860.460938 2522.800781 C 1577.78125 2522.832031 1254.46875 2373.070312 959.800781 2236.601562 C 663.789062 2099.511719 408.144531 1981.121094 263.324219 2048.230469 C 211.796875 2072.121094 177.316406 2117.941406 157.921875 2188.300781 C 76.59375 2483.332031 -300.441406 2541.140625 -741.023438 2541.148438 C -884.128906 2541.148438 -1033.878906 2535.050781 -1182.449219 2529.011719 C -1460.960938 2517.667969 -1748.949219 2505.949219 -1973.320312 2537.167969 C -2227.109375 2572.480469 -2368.820312 2656.101562 -2419.289062 2800.339844 "/>
<path fill-rule="nonzero" fill="rgb(37.036133%, 48.625183%, 77.922058%)" fill-opacity="1" d="M -2504.589844 2841.109375 L -2508.109375 2839.808594 C -2479.96875 2763.871094 -2425.71875 2705.160156 -2342.261719 2660.320312 C -2267.949219 2620.390625 -2171.890625 2592.417969 -2048.589844 2574.800781 C -1819.519531 2542.082031 -1526.199219 2551 -1242.53125 2559.640625 C -627.121094 2578.371094 9.230469 2597.761719 121.628906 2215.589844 C 142.144531 2145.820312 177.847656 2099.941406 230.773438 2075.328125 C 380.148438 2005.871094 640.945312 2120.589844 942.925781 2253.410156 C 1354.300781 2434.339844 1820.570312 2639.421875 2160.128906 2451.910156 C 2379.800781 2330.621094 2517.660156 2062.339844 2581.589844 1631.738281 C 2630.71875 1300.859375 2753.5 1072.03125 2956.941406 932.210938 C 3377.808594 642.960938 4068.121094 796.710938 4735.699219 945.378906 C 5523.71875 1120.890625 6268.039062 1286.660156 6483.621094 704.960938 L 6487.128906 706.269531 C 6270.421875 1291.03125 5524.550781 1124.921875 4734.878906 949.039062 C 4068.078125 800.539062 3378.589844 646.980469 2959.070312 935.300781 C 2756.53125 1074.5 2634.269531 1302.488281 2585.300781 1632.289062 C 2552.179688 1855.390625 2497.449219 2038.730469 2422.628906 2177.210938 C 2354.160156 2303.960938 2266.449219 2397.488281 2161.941406 2455.199219 C 2009.75 2539.230469 1818.039062 2551.800781 1575.859375 2493.640625 C 1364.308594 2442.839844 1149.320312 2348.28125 941.414062 2256.839844 C 640.269531 2124.390625 380.1875 2010.011719 232.355469 2078.730469 C 180.464844 2102.859375 145.421875 2147.96875 125.226562 2216.640625 C 36.574219 2518.070312 -373.816406 2571.558594 -843.824219 2571.570312 C -974.0625 2571.570312 -1108.800781 2567.460938 -1242.640625 2563.390625 C -1526.160156 2554.75 -1819.308594 2545.839844 -2048.058594 2578.511719 C -2303.300781 2614.980469 -2452.628906 2700.878906 -2504.589844 2841.109375 "/>
</svg>
